<svg width="93" height="93" viewBox="0 0 93 93" fill="none" xmlns="http://www.w3.org/2000/svg">
<path d="M93 46.5C93 72.1812 72.1812 93 46.5 93C20.8188 93 0 72.1812 0 46.5C0 20.8188 20.8188 0 46.5 0C72.1812 0 93 20.8188 93 46.5Z" fill="#563D7C"/>
<path fill-rule="evenodd" clip-rule="evenodd" d="M32.0691 23.5708C27.3461 23.5708 23.5173 27.3995 23.5173 32.1225V60.9846C23.5173 65.7076 27.3461 69.5363 32.0691 69.5363H60.9311C65.6541 69.5363 69.4829 65.7076 69.4829 60.9846V32.1225C69.4829 27.3995 65.6541 23.5708 60.9311 23.5708H32.0691ZM50.776 33.1379H35.8104V59.8621H51.3104C51.3104 59.8621 57.457 58.7931 57.457 51.8448C57.457 47.3017 54.5173 45.9655 54.5173 45.9655C54.5173 45.9655 56.388 44.0948 56.388 40.3534C56.388 33.9397 50.776 33.1379 50.776 33.1379ZM40.0863 37.4138H50.2415C50.2415 37.4138 52.1122 37.681 52.1122 40.3534C52.1122 43.0259 50.2415 43.8276 50.2415 43.8276H40.0863V37.4138ZM40.0863 48.1034V55.5862H50.2415C50.2415 55.5862 53.288 55.5862 53.288 51.8448C53.288 48.1034 50.2415 48.1034 50.2415 48.1034H40.0863Z" fill="white"/>
</svg>
