<svg width="100" height="138" viewBox="0 0 100 138" fill="none" xmlns="http://www.w3.org/2000/svg">
<path d="M85.4634 40.7473L88.3141 47.9298L82.6547 54.3857L77.8337 45.177L85.4634 40.7473Z" fill="#2564BF"/>
<path d="M16.9081 39.4059L11.3884 50.557L20.8068 58.8434L16.9081 39.4059Z" fill="#2564BF"/>
<path d="M50.711 62.6861C67.4425 62.6861 81.0062 49.8482 81.0062 34.0119C81.0062 18.1755 67.4425 5.33765 50.711 5.33765C33.9794 5.33765 20.4158 18.1755 20.4158 34.0119C20.4158 49.8482 33.9794 62.6861 50.711 62.6861Z" fill="#3144F1"/>
<path d="M17.8585 55.9651C13.862 55.9651 10.8716 51.186 10.7039 50.9764C10.5955 50.7965 10.5625 50.5809 10.6122 50.3768C10.662 50.1726 10.7903 49.9964 10.9694 49.8865C11.0561 49.8306 11.1531 49.7928 11.2547 49.7752C11.3563 49.7576 11.4604 49.7606 11.5607 49.7841C11.6611 49.8076 11.7558 49.851 11.839 49.9118C11.9223 49.9726 11.9925 50.0495 12.0454 50.138C12.0454 50.138 14.9659 54.6935 18.2498 54.3301C18.4573 54.3079 18.6652 54.369 18.8277 54.5001C18.9901 54.6311 19.0939 54.8213 19.1161 55.0288C19.1384 55.2364 19.0773 55.4442 18.9462 55.6067C18.8152 55.7692 18.625 55.873 18.4175 55.8952C18.2331 55.9324 18.0463 55.9558 17.8585 55.9651Z" fill="black"/>
<path d="M83.1579 52.9181C82.9636 52.9218 82.7747 52.8543 82.6268 52.7284C82.4788 52.6024 82.3819 52.4268 82.3544 52.2344C82.327 52.042 82.3707 51.8463 82.4775 51.684C82.5843 51.5216 82.7468 51.404 82.9343 51.3531C84.4534 51.0128 85.9331 50.5165 87.3501 49.8718C87.4393 49.8177 87.5385 49.7823 87.6419 49.7677C87.7452 49.7532 87.8504 49.7599 87.9511 49.7873C88.0518 49.8148 88.1458 49.8625 88.2275 49.9274C88.3091 49.9924 88.3767 50.0733 88.426 50.1653C88.4782 50.255 88.5121 50.3542 88.5255 50.4571C88.539 50.56 88.5319 50.6646 88.5046 50.7647C88.4773 50.8649 88.4303 50.9586 88.3665 51.0404C88.3026 51.1222 88.2231 51.1905 88.1326 51.2413C86.583 51.9705 84.9565 52.5236 83.2837 52.8902L83.1579 52.9181Z" fill="black"/>
<path d="M10.5642 87.6437C15.9047 87.6437 20.234 83.3143 20.234 77.9738C20.234 72.6333 15.9047 68.304 10.5642 68.304C5.22363 68.304 0.894287 72.6333 0.894287 77.9738C0.894287 83.3143 5.22363 87.6437 10.5642 87.6437Z" fill="#E4AA6C"/>
<path d="M11.4165 81.5225C13.67 81.5225 15.4969 79.6957 15.4969 77.4422C15.4969 75.1886 13.67 73.3618 11.4165 73.3618C9.16302 73.3618 7.33618 75.1886 7.33618 77.4422C7.33618 79.6957 9.16302 81.5225 11.4165 81.5225Z" fill="#CC834C"/>
<path d="M10.5642 88.5094C8.47637 88.5121 6.43466 87.8954 4.69755 86.7372C2.96043 85.5789 1.60602 83.9314 0.805767 82.003C0.00551407 80.0746 -0.204593 77.9522 0.202044 75.9043C0.608681 73.8565 1.61378 71.9753 3.09009 70.499C4.56641 69.0227 6.44756 68.0176 8.4954 67.611C10.5432 67.2043 12.6657 67.4145 14.5941 68.2147C16.5224 69.015 18.17 70.3694 19.3282 72.1065C20.4864 73.8436 21.1032 75.8853 21.1004 77.9731C21.0967 80.7664 19.9855 83.4442 18.0104 85.4193C16.0352 87.3944 13.3574 88.5057 10.5642 88.5094ZM10.5642 69.1836C8.82519 69.1808 7.12446 69.694 5.67719 70.6581C4.22992 71.6222 3.10118 72.994 2.43377 74.5998C1.76637 76.2057 1.59032 77.9734 1.92788 79.6793C2.26545 81.3852 3.10147 82.9527 4.33014 84.1833C5.55882 85.4139 7.12494 86.2524 8.83032 86.5927C10.5357 86.933 12.3037 86.7598 13.9106 86.0949C15.5175 85.4301 16.891 84.3035 17.8575 82.8578C18.8239 81.412 19.3397 79.7121 19.3397 77.9731C19.3397 75.6444 18.4156 73.4109 16.7703 71.7629C15.125 70.115 12.8929 69.1873 10.5642 69.1836Z" fill="black"/>
<path d="M15.4269 76.0169C15.33 76.0153 15.2349 75.9904 15.1498 75.9442C15.0646 75.8979 14.9919 75.8318 14.9378 75.7514C13.1771 73.0824 8.53783 73.2501 8.48194 73.2361C8.40509 73.2419 8.32787 73.2317 8.25514 73.2062C8.18241 73.1807 8.11574 73.1405 8.05931 73.088C8.00288 73.0355 7.95792 72.9719 7.92725 72.9012C7.89657 72.8305 7.88085 72.7542 7.88107 72.6771C7.87731 72.6 7.88879 72.523 7.91486 72.4503C7.94093 72.3777 7.98108 72.3109 8.033 72.2538C8.08492 72.1967 8.1476 72.1503 8.21744 72.1175C8.28728 72.0846 8.36292 72.0659 8.44002 72.0623C8.6636 72.0623 13.792 71.8946 15.916 75.1086C15.9576 75.1718 15.9863 75.2426 16.0004 75.317C16.0146 75.3913 16.0138 75.4677 15.9982 75.5418C15.9826 75.6158 15.9525 75.6861 15.9096 75.7484C15.8667 75.8108 15.8119 75.864 15.7483 75.9051C15.6554 75.9748 15.5431 76.0139 15.4269 76.0169Z" fill="black"/>
<path d="M9.58592 79.4269C9.50885 79.4269 9.43253 79.4117 9.36133 79.3822C9.29012 79.3527 9.22542 79.3095 9.17092 79.255C9.11642 79.2005 9.07319 79.1358 9.0437 79.0646C9.0142 78.9934 8.99902 78.9171 8.99902 78.84C8.99902 76.0452 11.682 73.2505 11.7938 73.1527C11.9066 73.0633 12.0484 73.0185 12.192 73.0269C12.3357 73.0352 12.4713 73.096 12.5731 73.1978C12.6749 73.2996 12.7357 73.4352 12.744 73.5789C12.7523 73.7225 12.7076 73.8643 12.6182 73.9771C12.6182 73.9771 10.1449 76.4784 10.1449 78.84C10.1467 78.9152 10.1337 78.9901 10.1067 79.0603C10.0796 79.1306 10.0389 79.1948 9.987 79.2493C9.93509 79.3038 9.87295 79.3475 9.80414 79.378C9.73532 79.4085 9.66117 79.4251 9.58592 79.4269Z" fill="black"/>
<path d="M88.6638 87.6437C94.0043 87.6437 98.3336 83.3143 98.3336 77.9738C98.3336 72.6333 94.0043 68.304 88.6638 68.304C83.3232 68.304 78.9939 72.6333 78.9939 77.9738C78.9939 83.3143 83.3232 87.6437 88.6638 87.6437Z" fill="#E4AA6C"/>
<path d="M88.3002 81.6902C90.7312 81.6902 92.7019 79.7195 92.7019 77.2885C92.7019 74.8575 90.7312 72.8867 88.3002 72.8867C85.8692 72.8867 83.8984 74.8575 83.8984 77.2885C83.8984 79.7195 85.8692 81.6902 88.3002 81.6902Z" fill="#CC834C"/>
<path d="M88.6638 88.5094C86.576 88.5121 84.5343 87.8954 82.7972 86.7372C81.06 85.5789 79.7056 83.9314 78.9054 82.003C78.1051 80.0746 77.895 77.9522 78.3017 75.9043C78.7083 73.8565 79.7134 71.9753 81.1897 70.499C82.666 69.0227 84.5472 68.0176 86.595 67.611C88.6428 67.2043 90.7653 67.4145 92.6937 68.2147C94.622 69.015 96.2696 70.3694 97.4278 72.1065C98.586 73.8436 99.2028 75.8853 99.2 77.9731C99.1963 80.7664 98.0851 83.4442 96.11 85.4193C94.1348 87.3944 91.457 88.5057 88.6638 88.5094ZM88.6638 69.1836C86.9254 69.1836 85.226 69.6991 83.7806 70.6649C82.3352 71.6307 81.2086 73.0034 80.5433 74.6095C79.8781 76.2156 79.704 77.9829 80.0432 79.6879C80.3823 81.3929 81.2194 82.959 82.4487 84.1883C83.6779 85.4175 85.244 86.2546 86.949 86.5938C88.654 86.9329 90.4213 86.7588 92.0274 86.0936C93.6335 85.4283 95.0062 84.3018 95.972 82.8563C96.9378 81.4109 97.4533 79.7115 97.4533 77.9731C97.4533 75.642 96.5273 73.4064 94.8789 71.758C93.2306 70.1096 90.9949 69.1836 88.6638 69.1836Z" fill="black"/>
<path d="M83.7868 76.0169C83.6707 76.0139 83.5584 75.9748 83.4654 75.9051C83.3399 75.8198 83.2524 75.6891 83.2211 75.5406C83.1898 75.3921 83.2173 75.2373 83.2978 75.1086C85.4358 71.8946 90.5641 72.0623 90.7737 72.0623C90.9245 72.073 91.0652 72.1415 91.1668 72.2534C91.2683 72.3653 91.3227 72.5121 91.3187 72.6632C91.3169 72.7396 91.2999 72.815 91.2685 72.8847C91.2372 72.9545 91.1922 73.0173 91.1362 73.0694C91.0802 73.1215 91.0143 73.1618 90.9425 73.188C90.8706 73.2143 90.7942 73.2259 90.7178 73.2221C90.7178 73.2221 86.0226 73.0684 84.2619 75.7374C84.2117 75.8193 84.1421 75.8877 84.0592 75.9364C83.9764 75.9851 83.8829 76.0128 83.7868 76.0169Z" fill="black"/>
<path d="M89.6417 79.4265C89.4861 79.4265 89.3368 79.3647 89.2267 79.2546C89.1167 79.1445 89.0548 78.9952 89.0548 78.8396C89.0548 76.478 86.6094 74.0047 86.5815 73.9767C86.5166 73.9253 86.4633 73.8608 86.4251 73.7873C86.3869 73.7139 86.3647 73.6332 86.3599 73.5505C86.3551 73.4679 86.3678 73.3851 86.3973 73.3078C86.4268 73.2304 86.4722 73.1601 86.5308 73.1016C86.5893 73.043 86.6596 72.9976 86.737 72.9681C86.8143 72.9386 86.8971 72.9259 86.9797 72.9307C87.0624 72.9355 87.1431 72.9577 87.2165 72.9959C87.29 73.0341 87.3545 73.0873 87.4059 73.1523C87.5317 73.264 90.2007 75.947 90.2007 78.8396C90.2025 78.9148 90.1895 78.9897 90.1625 79.0599C90.1354 79.1302 90.0947 79.1944 90.0428 79.2489C89.9909 79.3034 89.9288 79.3471 89.8599 79.3776C89.7911 79.4081 89.717 79.4247 89.6417 79.4265Z" fill="black"/>
<path d="M83.1578 52.1218V89.1663C83.1578 98.1241 79.6023 106.716 73.2721 113.054C66.9419 119.392 58.3549 122.958 49.3971 122.969C30.6722 122.969 16.2792 106.787 16.2652 88.1183L15.5386 89.1663V52.1218C15.5317 47.4239 16.5079 42.7765 18.4043 38.4783C20.3006 34.1802 23.0753 30.3264 26.55 27.1646C33.5113 31.1013 41.4011 33.0991 49.3971 32.9497C57.3795 33.0957 65.2549 31.0979 72.2024 27.1646C72.5936 27.4999 72.943 27.8632 73.3063 28.2266C76.4429 31.3631 78.9282 35.0891 80.6189 39.1901C82.3097 43.2911 83.1725 47.686 83.1578 52.1218Z" fill="#E4AA6C"/>
<path d="M52.7091 122.48C51.8428 122.48 50.9624 122.578 50.0821 122.578C31.4131 122.578 14.2672 107.682 16.2655 88.7755V51.7031C16.2638 47.0047 17.2437 42.3577 19.1423 38.06C21.0409 33.7623 23.8163 29.9086 27.2908 26.7458C28.3528 27.3886 28.1292 27.9895 29.331 28.5485C23.6297 34.6271 19.2279 42.7878 19.2279 51.7031V88.7755C19.2279 106.564 32.9362 121.893 52.7091 122.48Z" fill="#F8D79C"/>
<path d="M26.6186 37.7428C27.6527 35.9516 27.4616 33.9052 26.1918 33.1721C24.9219 32.4389 23.0541 33.2966 22.02 35.0878C20.9858 36.879 21.1769 38.9254 22.4468 39.6586C23.7167 40.3917 25.5844 39.534 26.6186 37.7428Z" fill="white"/>
<path d="M28.8557 37.1C29.2802 37.1 29.6243 36.612 29.6243 36.01C29.6243 35.408 29.2802 34.92 28.8557 34.92C28.4313 34.92 28.0872 35.408 28.0872 36.01C28.0872 36.612 28.4313 37.1 28.8557 37.1Z" fill="white"/>
<path d="M28.1432 39.4055C28.4905 39.4055 28.772 39.1239 28.772 38.7766C28.772 38.4294 28.4905 38.1478 28.1432 38.1478C27.7959 38.1478 27.5144 38.4294 27.5144 38.7766C27.5144 39.1239 27.7959 39.4055 28.1432 39.4055Z" fill="white"/>
<path d="M73.9075 27.7235L72.8036 26.6615C71.6766 27.3449 70.51 27.9608 69.3101 28.506L69.7573 29.0091C62.7893 32.1687 55.1424 33.5376 47.511 32.9916C47.2683 32.9641 47.0246 33.034 46.8334 33.1859C46.6421 33.3379 46.519 33.5595 46.4909 33.8021C46.4773 33.9215 46.4876 34.0424 46.5211 34.1578C46.5546 34.2732 46.6107 34.3808 46.6861 34.4744C46.7614 34.568 46.8547 34.6457 46.9603 34.703C47.0659 34.7603 47.1818 34.7961 47.3014 34.8082C48.4627 34.9142 49.6289 34.9562 50.7948 34.934C57.7878 34.9623 64.6978 33.4199 71.0149 30.4205C75.8663 36.4487 78.4917 43.9648 78.449 51.7025V88.7331C78.4301 97.2244 75.2175 105.398 69.4494 111.629C63.6813 117.861 55.7799 121.694 47.3154 122.368C48.2097 122.438 49.104 122.466 49.9983 122.466C58.9646 122.466 67.5639 118.905 73.9053 112.566C80.2468 106.227 83.8112 97.6295 83.8149 88.6632V51.7025C83.8257 47.2499 82.9559 42.839 81.2556 38.7237C79.5553 34.6085 77.058 30.87 73.9075 27.7235Z" fill="#CC834C"/>
<path d="M68.7651 35.1161C69.5754 35.1161 70.2324 34.6218 70.2324 34.0121C70.2324 33.4025 69.5754 32.9082 68.7651 32.9082C67.9548 32.9082 67.2979 33.4025 67.2979 34.0121C67.2979 34.6218 67.9548 35.1161 68.7651 35.1161Z" fill="#F57A59"/>
<path d="M71.0566 35.6885C71.3808 35.6885 71.6435 35.4883 71.6435 35.2414C71.6435 34.9944 71.3808 34.7942 71.0566 34.7942C70.7325 34.7942 70.4697 34.9944 70.4697 35.2414C70.4697 35.4883 70.7325 35.6885 71.0566 35.6885Z" fill="#F57A59"/>
<path d="M66.725 36.2755C67.1418 36.2755 67.4796 36.019 67.4796 35.7026C67.4796 35.3861 67.1418 35.1296 66.725 35.1296C66.3083 35.1296 65.9705 35.3861 65.9705 35.7026C65.9705 36.019 66.3083 36.2755 66.725 36.2755Z" fill="#F57A59"/>
<path d="M49.6346 123.765C43.6298 123.745 37.7324 122.171 32.5165 119.196C27.3007 116.221 22.9439 111.946 19.8704 106.787C19.8261 106.693 19.8011 106.591 19.7968 106.487C19.7926 106.382 19.8091 106.278 19.8456 106.181C19.882 106.083 19.9376 105.994 20.009 105.918C20.0805 105.842 20.1664 105.781 20.2616 105.739C20.4274 105.668 20.6123 105.654 20.7869 105.699C20.9616 105.745 21.1161 105.847 21.2258 105.991C24.9 112.24 30.5286 117.106 37.2431 119.839C43.9576 122.572 51.3848 123.019 58.3786 121.111C65.3725 119.204 71.5443 115.048 75.9417 109.285C80.3391 103.522 82.7177 96.4714 82.7105 89.2221V52.1217C82.724 47.7834 81.8761 43.4855 80.2162 39.4773C78.5563 35.469 76.1173 31.8301 73.0407 28.7715L72.3839 28.1426C65.4333 31.9452 57.612 33.8716 49.6904 33.7322C41.7693 33.8677 33.949 31.9416 26.997 28.1426C23.7299 31.226 21.1246 34.942 19.3397 39.0644C17.5547 43.1868 16.6275 47.6294 16.6145 52.1217V89.1662C16.6166 91.1622 16.7943 93.1542 17.1455 95.1191C17.1656 95.2201 17.1652 95.3242 17.1442 95.4252C17.1233 95.5261 17.0823 95.6218 17.0236 95.7065C16.9649 95.7912 16.8898 95.8633 16.8027 95.9184C16.7156 95.9736 16.6183 96.0106 16.5166 96.0274C16.4147 96.0476 16.3098 96.0473 16.208 96.0265C16.1062 96.0057 16.0095 95.9648 15.9237 95.9063C15.8378 95.8478 15.7645 95.7727 15.708 95.6855C15.6514 95.5984 15.6128 95.5008 15.5944 95.3985C15.2201 93.3423 15.033 91.2563 15.0354 89.1662V52.1217C15.0359 47.3098 16.0389 42.5507 17.9805 38.1479C19.9221 33.7451 22.7596 29.7951 26.3123 26.5496C26.4366 26.434 26.5952 26.3618 26.7641 26.3442C26.9329 26.3266 27.103 26.3643 27.2485 26.4518C34.057 30.3153 41.7798 32.2749 49.6066 32.1252C57.4316 32.2751 65.1533 30.3205 71.9647 26.4658C72.1109 26.3753 72.2825 26.3346 72.4537 26.3497C72.625 26.3648 72.7868 26.435 72.9149 26.5496L74.0468 27.6256C77.2698 30.8342 79.8247 34.65 81.5636 38.8523C83.3026 43.0545 84.1911 47.5599 84.1778 52.1077V89.1383C84.1741 98.3063 80.5362 107.099 74.0613 113.59C67.5864 120.08 58.8025 123.739 49.6346 123.765Z" fill="#181828"/>
<path d="M22.0971 100.143C22.8968 99.8577 23.1693 98.5718 22.7056 97.2705C22.242 95.9692 21.2179 95.1452 20.4182 95.4302C19.6185 95.7151 19.3461 97.001 19.8097 98.3023C20.2733 99.6036 21.2974 100.428 22.0971 100.143Z" fill="#FCE1B7"/>
<path opacity="0.89" d="M22.6652 94.6444C23.082 94.6444 23.4198 94.3066 23.4198 93.8898C23.4198 93.4731 23.082 93.1353 22.6652 93.1353C22.2485 93.1353 21.9106 93.4731 21.9106 93.8898C21.9106 94.3066 22.2485 94.6444 22.6652 94.6444Z" fill="white"/>
<path opacity="0.59" d="M24.9571 99.1577C25.4588 99.1577 25.8654 98.751 25.8654 98.2494C25.8654 97.7477 25.4588 97.3411 24.9571 97.3411C24.4555 97.3411 24.0488 97.7477 24.0488 98.2494C24.0488 98.751 24.4555 99.1577 24.9571 99.1577Z" fill="white"/>
<path d="M18.7246 103.503C18.5852 103.5 18.449 103.461 18.3291 103.39C18.2091 103.319 18.1095 103.218 18.0399 103.098C17.689 102.329 17.4265 101.522 17.2573 100.694C17.2059 100.492 17.2356 100.278 17.3401 100.098C17.4446 99.9176 17.6155 99.7855 17.8163 99.7298C18.0201 99.6789 18.2357 99.7105 18.4163 99.8178C18.5969 99.9251 18.7278 100.099 18.7805 100.303C18.9434 100.98 19.1728 101.64 19.4652 102.273C19.518 102.362 19.5526 102.46 19.5671 102.563C19.5816 102.665 19.5757 102.769 19.5497 102.869C19.5237 102.969 19.4782 103.063 19.4157 103.146C19.3532 103.228 19.2751 103.297 19.1857 103.349C19.0672 103.42 18.9323 103.458 18.7944 103.461L18.7246 103.503Z" fill="#181828"/>
<path opacity="0.6" d="M20.3039 77.0506C20.8132 77.0506 21.2261 76.6377 21.2261 76.1283C21.2261 75.619 20.8132 75.2061 20.3039 75.2061C19.7945 75.2061 19.3816 75.619 19.3816 76.1283C19.3816 76.6377 19.7945 77.0506 20.3039 77.0506Z" fill="white"/>
<path opacity="0.3" d="M21.5614 74.3399C22.0708 74.3399 22.4837 73.927 22.4837 73.4176C22.4837 72.9083 22.0708 72.4954 21.5614 72.4954C21.0521 72.4954 20.6392 72.9083 20.6392 73.4176C20.6392 73.927 21.0521 74.3399 21.5614 74.3399Z" fill="white"/>
<path d="M19.172 79.6224C19.6814 79.6224 20.0943 79.2095 20.0943 78.7001C20.0943 78.1907 19.6814 77.7778 19.172 77.7778C18.6627 77.7778 18.2498 78.1907 18.2498 78.7001C18.2498 79.2095 18.6627 79.6224 19.172 79.6224Z" fill="#FCE1B7"/>
<path opacity="0.6" d="M20.5832 82.6124C21.0925 82.6124 21.5054 82.1994 21.5054 81.6901C21.5054 81.1807 21.0925 80.7678 20.5832 80.7678C20.0738 80.7678 19.6609 81.1807 19.6609 81.6901C19.6609 82.1994 20.0738 82.6124 20.5832 82.6124Z" fill="white"/>
<path opacity="0.3" d="M21.841 79.9014C22.3503 79.9014 22.7632 79.4885 22.7632 78.9792C22.7632 78.4698 22.3503 78.0569 21.841 78.0569C21.3316 78.0569 20.9187 78.4698 20.9187 78.9792C20.9187 79.4885 21.3316 79.9014 21.841 79.9014Z" fill="white"/>
<path d="M19.4513 85.1839C19.9607 85.1839 20.3736 84.771 20.3736 84.2616C20.3736 83.7523 19.9607 83.3394 19.4513 83.3394C18.942 83.3394 18.5291 83.7523 18.5291 84.2616C18.5291 84.771 18.942 85.1839 19.4513 85.1839Z" fill="white"/>
<path opacity="0.6" d="M73.4462 102.385C73.9555 102.385 74.3685 101.972 74.3685 101.463C74.3685 100.953 73.9555 100.541 73.4462 100.541C72.9368 100.541 72.5239 100.953 72.5239 101.463C72.5239 101.972 72.9368 102.385 73.4462 102.385Z" fill="#F57A59"/>
<path opacity="0.3" d="M72.1886 99.6746C72.698 99.6746 73.1109 99.2617 73.1109 98.7523C73.1109 98.243 72.698 97.8301 72.1886 97.8301C71.6793 97.8301 71.2664 98.243 71.2664 98.7523C71.2664 99.2617 71.6793 99.6746 72.1886 99.6746Z" fill="#F57A59"/>
<path d="M74.5641 104.957C75.0735 104.957 75.4864 104.544 75.4864 104.035C75.4864 103.525 75.0735 103.113 74.5641 103.113C74.0548 103.113 73.6418 103.525 73.6418 104.035C73.6418 104.544 74.0548 104.957 74.5641 104.957Z" fill="#F57A59"/>
<path opacity="0.6" d="M73.1669 107.947C73.6763 107.947 74.0892 107.534 74.0892 107.025C74.0892 106.515 73.6763 106.103 73.1669 106.103C72.6575 106.103 72.2446 106.515 72.2446 107.025C72.2446 107.534 72.6575 107.947 73.1669 107.947Z" fill="#F57A59"/>
<path opacity="0.3" d="M71.9088 105.236C72.4182 105.236 72.8311 104.823 72.8311 104.314C72.8311 103.805 72.4182 103.392 71.9088 103.392C71.3995 103.392 70.9866 103.805 70.9866 104.314C70.9866 104.823 71.3995 105.236 71.9088 105.236Z" fill="#F57A59"/>
<path d="M74.2987 110.533C74.8081 110.533 75.221 110.12 75.221 109.61C75.221 109.101 74.8081 108.688 74.2987 108.688C73.7894 108.688 73.3765 109.101 73.3765 109.61C73.3765 110.12 73.7894 110.533 74.2987 110.533Z" fill="#F57A59"/>
<path d="M75.7517 84.4574C75.232 84.47 74.7255 84.2929 74.3269 83.9592C73.9283 83.6254 73.665 83.1579 73.5862 82.644C73.5074 82.1302 73.6186 81.6052 73.8988 81.1674C74.1791 80.7296 74.6093 80.4088 75.1089 80.2652C75.3766 80.1765 75.6596 80.1432 75.9407 80.1672C76.2217 80.1913 76.495 80.2721 76.7438 80.405C76.9949 80.5358 77.217 80.7158 77.3971 80.9342C77.5771 81.1527 77.7114 81.4051 77.7918 81.6766C77.8764 81.9445 77.9073 82.2264 77.8828 82.5063C77.8584 82.7862 77.779 83.0585 77.6492 83.3077C77.5194 83.5568 77.3418 83.778 77.1265 83.9585C76.9112 84.139 76.6625 84.2752 76.3945 84.3595C76.1855 84.4204 75.9693 84.4533 75.7517 84.4574ZM75.3604 81.0477C75.1114 81.1232 74.8903 81.2709 74.7254 81.4722C74.5604 81.6735 74.4589 81.9192 74.4338 82.1782C74.4088 82.4372 74.4612 82.6979 74.5844 82.9271C74.7077 83.1563 74.8963 83.3437 75.1262 83.4655C75.3562 83.5874 75.6171 83.6382 75.876 83.6115C76.1348 83.5848 76.3799 83.4818 76.5802 83.3156C76.7804 83.1494 76.9268 82.9275 77.0007 82.6779C77.0746 82.4284 77.0727 82.1626 76.9953 81.9141C76.9466 81.7488 76.8644 81.5953 76.7538 81.4631C76.6432 81.3309 76.5066 81.2228 76.3525 81.1456C76.2017 81.0648 76.0365 81.0145 75.8662 80.9977C75.696 80.981 75.5241 80.9979 75.3604 81.0477Z" fill="black"/>
<path d="M79.8043 85.0583C79.5797 85.0549 79.3592 84.9974 79.1615 84.8906C78.8409 84.7181 78.6003 84.4273 78.4908 84.0801C78.3893 83.7357 78.4243 83.3654 78.5886 83.0461C78.7582 82.7202 79.0494 82.4742 79.3991 82.3614C79.7478 82.2561 80.1239 82.2912 80.4471 82.4592C80.6788 82.5929 80.8672 82.7904 80.99 83.0281C81.1127 83.2657 81.1647 83.5337 81.1397 83.8C81.1147 84.0663 81.0137 84.3199 80.8488 84.5306C80.684 84.7412 80.4621 84.9001 80.2096 84.9884C80.0791 85.0331 79.9423 85.0567 79.8043 85.0583ZM79.8043 82.8365C79.721 82.8231 79.6361 82.8231 79.5528 82.8365C79.4485 82.8683 79.3516 82.9205 79.2677 82.9901C79.1837 83.0597 79.1144 83.1452 79.0637 83.2417C79.0191 83.343 78.996 83.4524 78.996 83.5631C78.996 83.6738 79.0191 83.7832 79.0637 83.8845C79.0932 83.9916 79.1443 84.0916 79.2141 84.1781C79.2838 84.2647 79.3705 84.336 79.4689 84.3876C79.5665 84.4758 79.6834 84.5398 79.8103 84.5744C79.9371 84.6091 80.0703 84.6134 80.1992 84.5871C80.328 84.5608 80.4489 84.5045 80.5519 84.4228C80.655 84.3412 80.7374 84.2364 80.7925 84.117C80.8477 83.9976 80.8739 83.8669 80.8692 83.7355C80.8644 83.6041 80.8289 83.4756 80.7653 83.3605C80.7018 83.2454 80.612 83.1468 80.5033 83.0728C80.3947 82.9987 80.2701 82.9513 80.1397 82.9343C80.0369 82.8764 79.9221 82.8429 79.8043 82.8365Z" fill="black"/>
<path d="M78.4906 80.5444C78.3151 80.5441 78.1424 80.5009 77.9875 80.4186C77.7299 80.2825 77.5347 80.0523 77.4425 79.7758C77.3817 79.6339 77.3513 79.4809 77.3534 79.3265C77.3554 79.1721 77.3898 79.0199 77.4543 78.8797C77.5188 78.7394 77.612 78.6142 77.7279 78.5123C77.8438 78.4103 77.9798 78.3337 78.1271 78.2876C78.2744 78.2414 78.4298 78.2267 78.5832 78.2443C78.7365 78.2619 78.8845 78.3115 79.0175 78.3898C79.1505 78.4682 79.2657 78.5736 79.3554 78.6992C79.4452 78.8248 79.5076 78.9678 79.5386 79.1191C79.6431 79.3888 79.6431 79.6878 79.5386 79.9575C79.4706 80.0857 79.3774 80.1989 79.2645 80.2901C79.1516 80.3814 79.0215 80.4489 78.8818 80.4885C78.7579 80.5386 78.6236 80.5578 78.4906 80.5444ZM78.4906 78.7697C78.426 78.7566 78.3595 78.7566 78.2949 78.7697C78.2113 78.794 78.1336 78.835 78.0663 78.8903C77.9991 78.9455 77.9437 79.0139 77.9037 79.0911C77.8416 79.2579 77.8416 79.4414 77.9037 79.6082C77.9303 79.6926 77.9737 79.7708 78.0314 79.8381C78.089 79.9053 78.1596 79.9602 78.239 79.9994C78.3166 80.0428 78.4021 80.07 78.4904 80.0794C78.5788 80.0888 78.6681 80.0802 78.753 80.0541C78.8379 80.0279 78.9166 79.9849 78.9844 79.9274C79.0522 79.87 79.1076 79.7994 79.1473 79.7199C79.1815 79.6381 79.1991 79.5502 79.1991 79.4614C79.1991 79.3727 79.1815 79.2848 79.1473 79.2029C79.0941 79.0362 78.9791 78.8962 78.8259 78.8117C78.7199 78.768 78.6041 78.7535 78.4906 78.7697Z" fill="black"/>
<path d="M79.3712 46.812C79.2181 46.8097 79.0685 46.7663 78.938 46.6862C53.0166 29.3447 27.2629 45.6102 27.0393 45.7779C26.8606 45.8897 26.6453 45.9274 26.4392 45.883C26.2331 45.8387 26.0524 45.7158 25.9354 45.5404C25.8244 45.3638 25.7871 45.1507 25.8315 44.9469C25.8759 44.743 25.9985 44.5648 26.173 44.4504C26.4385 44.2827 53.0446 27.3744 79.8463 45.3727C79.9334 45.429 80.0082 45.5023 80.0662 45.5883C80.1241 45.6743 80.1641 45.7711 80.1837 45.8729C80.2033 45.9748 80.2021 46.0795 80.1801 46.1808C80.1582 46.2822 80.1159 46.378 80.0559 46.4626C79.9815 46.5749 79.8794 46.666 79.7594 46.7272C79.6395 46.7884 79.5058 46.8176 79.3712 46.812Z" fill="#CC834C"/>
<path d="M22.2461 52.4572C21.6804 52.4448 21.1428 52.2086 20.7509 51.8005C20.4816 51.3819 20.3667 50.8824 20.4262 50.3882C20.4857 49.8939 20.7157 49.436 21.0767 49.0932C21.4377 48.7505 21.907 48.5444 22.4036 48.5106C22.9002 48.4767 23.3931 48.6173 23.7972 48.9079C24.1974 49.311 24.422 49.856 24.422 50.4241C24.422 50.9921 24.1974 51.5371 23.7972 51.9402C23.3668 52.3073 22.8106 52.4927 22.2461 52.4572ZM22.2461 49.0057C21.8963 49.0043 21.5587 49.1341 21.3 49.3696C21.0412 49.605 20.8802 49.9289 20.8487 50.2773C20.85 50.6304 20.9848 50.9698 21.226 51.2276C21.4631 51.4777 21.7898 51.6235 22.1343 51.6328C22.4827 51.6328 22.8168 51.4944 23.0631 51.2481C23.3095 51.0017 23.4479 50.6676 23.4479 50.3193C23.4479 49.9709 23.3095 49.6368 23.0631 49.3904C22.8168 49.1441 22.4827 49.0057 22.1343 49.0057H22.2461Z" fill="black"/>
<path d="M22.847 55.8948C22.6611 55.8922 22.4776 55.8525 22.3072 55.7782C22.1369 55.7038 21.9831 55.5961 21.8548 55.4616C21.6847 55.3431 21.5432 55.1882 21.4403 55.0082C21.3375 54.8282 21.276 54.6276 21.2604 54.4209C21.2447 54.2142 21.2752 54.0066 21.3496 53.8131C21.4241 53.6197 21.5407 53.4452 21.6909 53.3024C21.8411 53.1595 22.0213 53.0519 22.2182 52.9873C22.4152 52.9227 22.6241 52.9027 22.8297 52.9289C23.0354 52.955 23.2326 53.0265 23.4072 53.1383C23.5818 53.2501 23.7293 53.3993 23.8391 53.5751C24.0921 53.8376 24.2325 54.1887 24.2304 54.5533C24.2178 54.919 24.0622 55.2652 23.7972 55.5175C23.5395 55.7588 23.2 55.8935 22.847 55.8948ZM22.847 53.6729C22.632 53.673 22.426 53.7585 22.274 53.9105C22.1942 53.9866 22.1302 54.0778 22.0856 54.1787C22.0409 54.2796 22.0166 54.3883 22.0141 54.4986C22.0115 54.6089 22.0306 54.7186 22.0704 54.8215C22.1102 54.9244 22.1699 55.0184 22.2461 55.0983C22.3222 55.1781 22.4134 55.2421 22.5143 55.2867C22.6152 55.3313 22.7239 55.3556 22.8342 55.3582C22.9445 55.3608 23.0542 55.3417 23.1571 55.3019C23.26 55.2621 23.354 55.2024 23.4338 55.1262C23.5852 54.9655 23.6694 54.7531 23.6694 54.5323C23.6694 54.3116 23.5852 54.0992 23.4338 53.9384C23.2805 53.7766 23.0698 53.6813 22.847 53.6729Z" fill="black"/>
<path d="M26.0191 52.5968C25.7291 52.5889 25.4535 52.4687 25.2506 52.2614C25.1501 52.1578 25.0711 52.0353 25.0184 51.901C24.9656 51.7666 24.94 51.6232 24.9431 51.4789C24.9504 51.2635 25.0206 51.055 25.1449 50.8791C25.2693 50.7032 25.4424 50.5674 25.643 50.4887C25.8436 50.41 26.0628 50.3916 26.2736 50.436C26.4845 50.4803 26.6777 50.5854 26.8296 50.7383C27.0335 50.9449 27.1479 51.2235 27.1479 51.5138C27.1479 51.8041 27.0335 52.0828 26.8296 52.2894C26.7218 52.392 26.5945 52.472 26.4554 52.5248C26.3162 52.5776 26.1679 52.6021 26.0191 52.5968ZM26.0191 50.8221C25.8456 50.8238 25.6798 50.8942 25.558 51.0177C25.4361 51.142 25.3619 51.3053 25.3484 51.4789C25.3501 51.6606 25.4199 51.8351 25.544 51.968C25.6653 52.0942 25.8303 52.1692 26.0051 52.1776C26.1847 52.1656 26.3559 52.0971 26.4942 51.9819C26.6172 51.8543 26.6859 51.684 26.6859 51.5068C26.6859 51.3296 26.6172 51.1593 26.4942 51.0317C26.3699 50.9098 26.2067 50.8356 26.0331 50.8221H26.0191Z" fill="black"/>
<path d="M68.8766 92.8415V90.8292C68.8766 89.8101 68.4717 88.8326 67.751 88.112C67.0304 87.3913 66.0529 86.9864 65.0338 86.9864H34.2914C33.7844 86.9827 33.2817 87.0794 32.8123 87.2709C32.3428 87.4624 31.9159 87.7448 31.5561 88.102C31.1963 88.4592 30.9107 88.8841 30.7158 89.3522C30.521 89.8202 30.4207 90.3222 30.4207 90.8292V92.8554C30.4225 93.3833 30.3201 93.9063 30.1194 94.3945C29.9187 94.8827 29.6236 95.3264 29.251 95.7003C28.8784 96.0742 28.4357 96.3708 27.9482 96.5733C27.4607 96.7757 26.938 96.8799 26.4102 96.8799C25.4155 96.8798 24.4606 97.2711 23.752 97.9692C23.0434 98.6673 22.638 99.6163 22.6233 100.611V127.287C22.6233 128.769 23.2122 130.191 24.2604 131.239C25.3087 132.287 26.7304 132.876 28.2128 132.876L38.6233 136.062L50.0259 137.222L60.9953 136.062L71.1124 132.876C72.5948 132.876 74.0165 132.287 75.0648 131.239C76.113 130.191 76.7019 128.769 76.7019 127.287V100.611C76.7019 99.6065 76.3029 98.6433 75.5927 97.9331C74.8826 97.223 73.9193 96.824 72.915 96.824C72.3883 96.8277 71.8661 96.7276 71.3781 96.5294C70.8901 96.3313 70.4459 96.039 70.0709 95.6691C69.6959 95.2993 69.3974 94.8593 69.1925 94.3741C68.9876 93.8889 68.8802 93.3681 68.8766 92.8415Z" fill="#582C22"/>
<path d="M76.6601 121.67V126.84C76.6601 128.322 76.0712 129.744 75.023 130.792C73.9747 131.841 72.553 132.429 71.0706 132.429L60.9675 136.049L49.9981 137.209L38.5955 136.049L28.185 132.429C26.7025 132.429 25.2808 131.841 24.2326 130.792C23.1844 129.744 22.5955 128.322 22.5955 126.84V121.67C22.5955 123.152 23.1844 124.574 24.2326 125.622C25.2808 126.67 26.7025 127.259 28.185 127.259H71.0845C72.5646 127.255 73.9827 126.665 75.0279 125.617C76.0731 124.569 76.6601 123.15 76.6601 121.67Z" fill="#4A322F"/>
<path d="M37.5896 95.0215H62.3372V100.709C62.3335 103.988 61.0294 107.131 58.711 109.449C56.3925 111.768 53.2491 113.072 49.9704 113.076C46.6892 113.076 43.5422 111.773 41.2208 109.454C38.8993 107.135 37.5933 103.99 37.5896 100.709V95.0215Z" fill="#D32456"/>
<path opacity="0.4" d="M49.956 107.891C54.1235 107.891 57.5019 105.796 57.5019 103.21C57.5019 100.625 54.1235 98.5291 49.956 98.5291C45.7886 98.5291 42.4102 100.625 42.4102 103.21C42.4102 105.796 45.7886 107.891 49.956 107.891Z" fill="#670118"/>
<path d="M61.0652 101.03H39.6154C39.4178 101.03 39.2223 100.991 39.0399 100.915C38.8576 100.839 38.6922 100.728 38.5531 100.587C38.4141 100.447 38.3043 100.281 38.23 100.098C38.1556 99.9146 38.1183 99.7186 38.1202 99.5211V94.4766H62.0573V100.066C62.05 100.324 61.9423 100.57 61.757 100.75C61.5717 100.93 61.3235 101.03 61.0652 101.03Z" fill="white"/>
<path d="M60.4367 101.031H39.7555C39.3256 101.031 38.9133 100.86 38.6093 100.556C38.3053 100.252 38.1345 99.8396 38.1345 99.4097V98.6411H62.0577V99.4097C62.0577 99.8396 61.8869 100.252 61.5829 100.556C61.2789 100.86 60.8666 101.031 60.4367 101.031Z" fill="#D2F2FF"/>
<path d="M62.0574 101.687H38.1343C37.9601 101.687 37.7931 101.618 37.6699 101.495C37.5467 101.371 37.4775 101.204 37.4775 101.03C37.4775 100.945 37.4946 100.86 37.5278 100.781C37.5609 100.702 37.6095 100.63 37.6707 100.571C37.7319 100.511 37.8044 100.464 37.884 100.432C37.9636 100.401 38.0487 100.385 38.1343 100.387H62.0574C62.2279 100.387 62.3914 100.455 62.512 100.576C62.6325 100.696 62.7002 100.86 62.7002 101.03C62.7003 101.202 62.633 101.367 62.5128 101.49C62.3927 101.612 62.2292 101.683 62.0574 101.687Z" fill="#1B1B2B"/>
<path d="M50.0959 113.299C46.58 113.299 43.2076 111.904 40.7189 109.421C38.2301 106.937 36.8282 103.568 36.8208 100.052V97.1174C36.8245 96.1586 37.207 95.2402 37.8849 94.5623C38.5628 93.8843 39.4813 93.5018 40.44 93.4982H59.7099C60.1882 93.4945 60.6625 93.5853 61.1056 93.7653C61.5487 93.9454 61.9519 94.2112 62.2921 94.5474C62.6322 94.8837 62.9026 95.2838 63.0878 95.7248C63.2729 96.1658 63.3692 96.6391 63.371 97.1174V100.052C63.3692 101.793 63.0244 103.517 62.3562 105.126C61.6881 106.734 60.7097 108.195 59.477 109.425C58.2443 110.655 56.7814 111.63 55.1718 112.295C53.5622 112.96 51.8374 113.301 50.0959 113.299ZM40.468 95.2309C39.9688 95.2346 39.4911 95.4345 39.1381 95.7875C38.7851 96.1405 38.5852 96.6182 38.5815 97.1174V100.052C38.6854 103.034 39.9434 105.86 42.0901 107.933C44.2368 110.006 47.1046 111.165 50.0889 111.165C53.0733 111.165 55.9411 110.006 58.0878 107.933C60.2345 105.86 61.4924 103.034 61.5963 100.052V97.1174C61.5927 96.6182 61.3928 96.1405 61.0398 95.7875C60.6868 95.4345 60.2091 95.2346 59.7099 95.2309H40.468Z" fill="#1B1B2B"/>
<path d="M50.5428 92.0451C50.3788 92.0472 50.2185 91.9968 50.0853 91.9012C49.952 91.8057 49.8528 91.67 49.8022 91.5141C49.0084 89.5095 48.5368 87.3919 48.4048 85.2399V79.9718C48.4303 79.7804 48.5244 79.6049 48.6696 79.4777C48.8148 79.3506 49.0013 79.2805 49.1943 79.2805C49.3873 79.2805 49.5738 79.3506 49.719 79.4777C49.8642 79.6049 49.9583 79.7804 49.9838 79.9718V85.2399C50.1057 87.2225 50.5347 89.1741 51.2554 91.025C51.3225 91.2234 51.3088 91.4401 51.2173 91.6284C51.1257 91.8167 50.9637 91.9614 50.7664 92.0311C50.6927 92.0453 50.6176 92.05 50.5428 92.0451Z" fill="#181828"/>
<path d="M33.663 99.4374C33.6104 99.4375 33.5584 99.4269 33.51 99.4064C33.4616 99.3859 33.4178 99.3558 33.3813 99.3179C33.3448 99.2801 33.3162 99.2353 33.2974 99.1862C33.2786 99.1371 33.2699 99.0848 33.2717 99.0322C33.2717 99.0322 33.3696 94.0156 33.2717 87.6995C33.2892 87.6066 33.3386 87.5228 33.4113 87.4625C33.484 87.4021 33.5755 87.3691 33.67 87.3691C33.7645 87.3691 33.856 87.4021 33.9287 87.4625C34.0014 87.5228 34.0508 87.6066 34.0682 87.6995C34.0682 94.0156 34.0682 99.0043 34.0682 99.0462C34.0683 99.0988 34.0577 99.1508 34.0372 99.1992C34.0166 99.2476 33.9866 99.2914 33.9487 99.3279C33.9109 99.3644 33.8661 99.3929 33.817 99.4118C33.7679 99.4306 33.7155 99.4393 33.663 99.4374Z" fill="#181728"/>
<path d="M42.4101 125.135C42.305 125.132 42.2055 125.087 42.1325 125.012C42.0595 124.936 42.0187 124.835 42.0188 124.73C42.0188 124.73 42.1166 119.7 42.0887 113.397C42.0887 113.344 42.0991 113.292 42.1195 113.242C42.1399 113.193 42.1697 113.149 42.2074 113.111C42.245 113.073 42.2897 113.043 42.3388 113.023C42.388 113.003 42.4407 112.992 42.4939 112.992C42.5966 112.996 42.6941 113.038 42.7667 113.111C42.8393 113.183 42.8817 113.281 42.8852 113.383C42.8852 119.7 42.8153 124.688 42.8153 124.744C42.8153 124.797 42.8048 124.849 42.7842 124.897C42.7637 124.946 42.7336 124.989 42.6958 125.026C42.658 125.062 42.6132 125.091 42.5641 125.11C42.515 125.129 42.4626 125.137 42.4101 125.135Z" fill="#181728"/>
<path d="M35.2695 97.9425C35.1668 97.939 35.0693 97.8967 34.9967 97.8241C34.924 97.7514 34.8817 97.6539 34.8782 97.5513C34.8782 95.6928 34.8782 93.8482 34.8782 92.0456C34.8762 91.9937 34.885 91.9419 34.904 91.8936C34.923 91.8452 34.9517 91.8013 34.9884 91.7646C35.0252 91.7278 35.0691 91.6991 35.1174 91.6801C35.1658 91.6611 35.2176 91.6524 35.2695 91.6543C35.3732 91.6543 35.4728 91.6956 35.5461 91.7689C35.6195 91.8423 35.6607 91.9418 35.6607 92.0456C35.6607 93.8482 35.6607 95.6928 35.6607 97.5513C35.6607 97.655 35.6195 97.7546 35.5461 97.8279C35.4728 97.9013 35.3732 97.9425 35.2695 97.9425Z" fill="#181728"/>
<path d="M40.5377 119.476C40.434 119.476 40.3345 119.435 40.2611 119.361C40.1877 119.288 40.1465 119.189 40.1465 119.085V113.579C40.1464 113.474 40.1872 113.373 40.2602 113.297C40.3332 113.222 40.4327 113.177 40.5377 113.174C40.6441 113.177 40.7452 113.221 40.8204 113.296C40.8957 113.372 40.9395 113.473 40.943 113.579C40.943 115.382 40.943 117.226 40.943 119.085C40.943 119.137 40.9325 119.189 40.9119 119.238C40.8914 119.286 40.8613 119.33 40.8235 119.366C40.7857 119.403 40.7409 119.432 40.6918 119.45C40.6427 119.469 40.5903 119.478 40.5377 119.476Z" fill="#181728"/>
<path d="M24.3561 110.798C24.1226 110.798 23.8987 110.705 23.7336 110.54C23.5685 110.375 23.4757 110.151 23.4757 109.918V101.436C23.46 101.312 23.4709 101.186 23.5076 101.066C23.5443 100.947 23.606 100.837 23.6886 100.743C23.7712 100.649 23.8729 100.574 23.9867 100.523C24.1006 100.471 24.2241 100.445 24.3491 100.445C24.4741 100.445 24.5976 100.471 24.7115 100.523C24.8253 100.574 24.927 100.649 25.0096 100.743C25.0922 100.837 25.1539 100.947 25.1906 101.066C25.2273 101.186 25.2382 101.312 25.2225 101.436V109.918C25.2225 110.149 25.1317 110.371 24.9696 110.535C24.8075 110.7 24.5871 110.794 24.3561 110.798Z" fill="white"/>
<path d="M24.3562 116.318C24.1227 116.318 23.8988 116.225 23.7337 116.06C23.5686 115.895 23.4758 115.671 23.4758 115.438V113.188C23.5028 112.975 23.6064 112.78 23.7671 112.638C23.9279 112.496 24.1349 112.418 24.3492 112.418C24.5635 112.418 24.7705 112.496 24.9312 112.638C25.092 112.78 25.1956 112.975 25.2226 113.188V115.452C25.219 115.68 25.1265 115.899 24.9648 116.06C24.8031 116.222 24.5848 116.314 24.3562 116.318Z" fill="white"/>
<path d="M26.047 108.493C25.942 108.489 25.8425 108.445 25.7695 108.369C25.6965 108.293 25.6557 108.192 25.6558 108.087C25.6558 106.243 25.6558 104.384 25.6558 102.596C25.659 102.492 25.7009 102.392 25.7732 102.318C25.8455 102.243 25.9431 102.197 26.047 102.19C26.1545 102.19 26.2576 102.233 26.3336 102.309C26.4096 102.385 26.4523 102.488 26.4523 102.596C26.4523 104.398 26.4523 106.243 26.4523 108.101C26.4454 108.205 26.4001 108.303 26.3252 108.375C26.2503 108.448 26.1511 108.489 26.047 108.493Z" fill="#181728"/>
<path d="M27.7938 112.657C27.7419 112.659 27.6901 112.65 27.6417 112.631C27.5934 112.612 27.5495 112.583 27.5127 112.546C27.476 112.51 27.4473 112.466 27.4283 112.417C27.4093 112.369 27.4005 112.317 27.4025 112.265C27.4025 110.421 27.4025 108.562 27.4025 106.774C27.3915 106.715 27.3935 106.655 27.4084 106.597C27.4234 106.54 27.4508 106.486 27.4888 106.44C27.5269 106.394 27.5745 106.357 27.6284 106.332C27.6824 106.307 27.7412 106.293 27.8007 106.293C27.8603 106.293 27.9191 106.307 27.9731 106.332C28.027 106.357 28.0746 106.394 28.1127 106.44C28.1507 106.486 28.1781 106.54 28.1931 106.597C28.208 106.655 28.21 106.715 28.199 106.774C28.199 108.576 28.199 110.435 28.199 112.279C28.1972 112.331 28.1853 112.381 28.1639 112.428C28.1426 112.475 28.1122 112.517 28.0746 112.552C28.037 112.587 27.9928 112.614 27.9446 112.632C27.8964 112.65 27.8452 112.658 27.7938 112.657Z" fill="#181728"/>
<path d="M50.8084 124.604C51.202 124.604 51.521 124.285 51.521 123.892C51.521 123.498 51.202 123.179 50.8084 123.179C50.4148 123.179 50.0957 123.498 50.0957 123.892C50.0957 124.285 50.4148 124.604 50.8084 124.604Z" fill="#4A322F"/>
<path d="M56.9292 125.247C57.3228 125.247 57.6419 124.928 57.6419 124.534C57.6419 124.14 57.3228 123.821 56.9292 123.821C56.5356 123.821 56.2166 124.14 56.2166 124.534C56.2166 124.928 56.5356 125.247 56.9292 125.247Z" fill="#4A322F"/>
<path d="M53.4911 125.443C53.7689 125.443 53.9942 125.217 53.9942 124.94C53.9942 124.662 53.7689 124.437 53.4911 124.437C53.2133 124.437 52.988 124.662 52.988 124.94C52.988 125.217 53.2133 125.443 53.4911 125.443Z" fill="#4A322F"/>
<path d="M49.2435 126.421C49.5214 126.421 49.7466 126.196 49.7466 125.918C49.7466 125.64 49.5214 125.415 49.2435 125.415C48.9657 125.415 48.7405 125.64 48.7405 125.918C48.7405 126.196 48.9657 126.421 49.2435 126.421Z" fill="#4A322F"/>
<path d="M53.8129 123.263C54.0907 123.263 54.3159 123.038 54.3159 122.76C54.3159 122.482 54.0907 122.257 53.8129 122.257C53.535 122.257 53.3098 122.482 53.3098 122.76C53.3098 123.038 53.535 123.263 53.8129 123.263Z" fill="#4A322F"/>
<path d="M51.8567 121.963C52.0496 121.963 52.206 121.806 52.206 121.614C52.206 121.421 52.0496 121.264 51.8567 121.264C51.6637 121.264 51.5073 121.421 51.5073 121.614C51.5073 121.806 51.6637 121.963 51.8567 121.963Z" fill="#4A322F"/>
<path d="M34.8086 123.5C35.0015 123.5 35.1579 123.344 35.1579 123.151C35.1579 122.958 35.0015 122.802 34.8086 122.802C34.6156 122.802 34.4592 122.958 34.4592 123.151C34.4592 123.344 34.6156 123.5 34.8086 123.5Z" fill="#4A322F"/>
<path d="M36.1084 117.617C36.3013 117.617 36.4577 117.461 36.4577 117.268C36.4577 117.075 36.3013 116.918 36.1084 116.918C35.9154 116.918 35.759 117.075 35.759 117.268C35.759 117.461 35.9154 117.617 36.1084 117.617Z" fill="#4A322F"/>
<path d="M59.2351 120.957C59.428 120.957 59.5844 120.8 59.5844 120.607C59.5844 120.414 59.428 120.258 59.2351 120.258C59.0421 120.258 58.8857 120.414 58.8857 120.607C58.8857 120.8 59.0421 120.957 59.2351 120.957Z" fill="#4A322F"/>
<path d="M63.3288 121.725C63.5218 121.725 63.6782 121.569 63.6782 121.376C63.6782 121.183 63.5218 121.026 63.3288 121.026C63.1359 121.026 62.9795 121.183 62.9795 121.376C62.9795 121.569 63.1359 121.725 63.3288 121.725Z" fill="#4A322F"/>
<path d="M67.6331 112.447C68.0267 112.447 68.3457 112.128 68.3457 111.735C68.3457 111.341 68.0267 111.022 67.6331 111.022C67.2395 111.022 66.9204 111.341 66.9204 111.735C66.9204 112.128 67.2395 112.447 67.6331 112.447Z" fill="#4A322F"/>
<path d="M70.7073 107.123C71.1009 107.123 71.42 106.804 71.42 106.411C71.42 106.017 71.1009 105.698 70.7073 105.698C70.3137 105.698 69.9946 106.017 69.9946 106.411C69.9946 106.804 70.3137 107.123 70.7073 107.123Z" fill="#4A322F"/>
<path d="M69.6871 110.211C69.965 110.211 70.1902 109.985 70.1902 109.708C70.1902 109.43 69.965 109.205 69.6871 109.205C69.4093 109.205 69.1841 109.43 69.1841 109.708C69.1841 109.985 69.4093 110.211 69.6871 110.211Z" fill="#4A322F"/>
<path d="M68.8488 114.487C69.1266 114.487 69.3518 114.262 69.3518 113.984C69.3518 113.706 69.1266 113.481 68.8488 113.481C68.5709 113.481 68.3457 113.706 68.3457 113.984C68.3457 114.262 68.5709 114.487 68.8488 114.487Z" fill="#4A322F"/>
<path d="M67.8285 109.037C68.1063 109.037 68.3316 108.812 68.3316 108.534C68.3316 108.256 68.1063 108.031 67.8285 108.031C67.5507 108.031 67.3254 108.256 67.3254 108.534C67.3254 108.812 67.5507 109.037 67.8285 109.037Z" fill="#4A322F"/>
<path d="M65.9841 110.197C66.177 110.197 66.3335 110.041 66.3335 109.848C66.3335 109.655 66.177 109.498 65.9841 109.498C65.7912 109.498 65.6348 109.655 65.6348 109.848C65.6348 110.041 65.7912 110.197 65.9841 110.197Z" fill="#4A322F"/>
<path d="M60.4365 126.407C60.6294 126.407 60.7858 126.25 60.7858 126.057C60.7858 125.864 60.6294 125.708 60.4365 125.708C60.2436 125.708 60.0872 125.864 60.0872 126.057C60.0872 126.25 60.2436 126.407 60.4365 126.407Z" fill="#4A322F"/>
<path d="M55.5876 122.801C55.7806 122.801 55.937 122.645 55.937 122.452C55.937 122.259 55.7806 122.103 55.5876 122.103C55.3947 122.103 55.2383 122.259 55.2383 122.452C55.2383 122.645 55.3947 122.801 55.5876 122.801Z" fill="#4A322F"/>
<path d="M68.052 103.042C68.2449 103.042 68.4013 102.886 68.4013 102.693C68.4013 102.5 68.2449 102.344 68.052 102.344C67.859 102.344 67.7026 102.5 67.7026 102.693C67.7026 102.886 67.859 103.042 68.052 103.042Z" fill="#4A322F"/>
<path d="M70.4277 99.6189C70.6207 99.6189 70.7771 99.4624 70.7771 99.2695C70.7771 99.0766 70.6207 98.9202 70.4277 98.9202C70.2348 98.9202 70.0784 99.0766 70.0784 99.2695C70.0784 99.4624 70.2348 99.6189 70.4277 99.6189Z" fill="#4A322F"/>
<path d="M26.4802 125.988C26.8738 125.988 27.1929 125.669 27.1929 125.275C27.1929 124.882 26.8738 124.563 26.4802 124.563C26.0866 124.563 25.7676 124.882 25.7676 125.275C25.7676 125.669 26.0866 125.988 26.4802 125.988Z" fill="#4A322F"/>
<path d="M29.5542 120.663C29.9478 120.663 30.2669 120.344 30.2669 119.95C30.2669 119.557 29.9478 119.238 29.5542 119.238C29.1606 119.238 28.8416 119.557 28.8416 119.95C28.8416 120.344 29.1606 120.663 29.5542 120.663Z" fill="#4A322F"/>
<path d="M28.5343 123.751C28.8121 123.751 29.0374 123.526 29.0374 123.248C29.0374 122.971 28.8121 122.745 28.5343 122.745C28.2565 122.745 28.0312 122.971 28.0312 123.248C28.0312 123.526 28.2565 123.751 28.5343 123.751Z" fill="#4A322F"/>
<path d="M27.6957 128.028C27.9735 128.028 28.1987 127.803 28.1987 127.525C28.1987 127.247 27.9735 127.022 27.6957 127.022C27.4179 127.022 27.1926 127.247 27.1926 127.525C27.1926 127.803 27.4179 128.028 27.6957 128.028Z" fill="#4A322F"/>
<path d="M26.6759 122.578C26.9537 122.578 27.179 122.353 27.179 122.075C27.179 121.797 26.9537 121.572 26.6759 121.572C26.3981 121.572 26.1729 121.797 26.1729 122.075C26.1729 122.353 26.3981 122.578 26.6759 122.578Z" fill="#4A322F"/>
<path d="M24.8313 123.738C25.0242 123.738 25.1806 123.581 25.1806 123.388C25.1806 123.195 25.0242 123.039 24.8313 123.039C24.6383 123.039 24.4819 123.195 24.4819 123.388C24.4819 123.581 24.6383 123.738 24.8313 123.738Z" fill="#4A322F"/>
<path d="M26.9133 116.584C27.1062 116.584 27.2627 116.427 27.2627 116.234C27.2627 116.041 27.1062 115.885 26.9133 115.885C26.7204 115.885 26.564 116.041 26.564 116.234C26.564 116.427 26.7204 116.584 26.9133 116.584Z" fill="#4A322F"/>
<path d="M29.2746 113.16C29.4676 113.16 29.624 113.003 29.624 112.81C29.624 112.617 29.4676 112.461 29.2746 112.461C29.0817 112.461 28.9253 112.617 28.9253 112.81C28.9253 113.003 29.0817 113.16 29.2746 113.16Z" fill="#4A322F"/>
<path d="M46.0989 88.5378H40.2998C40.0663 88.5378 39.8424 88.445 39.6773 88.28C39.5122 88.1149 39.4194 87.8909 39.4194 87.6575C39.4194 87.424 39.5122 87.2 39.6773 87.035C39.8424 86.8699 40.0663 86.7771 40.2998 86.7771H46.0989C46.3324 86.7771 46.5563 86.8699 46.7214 87.035C46.8865 87.2 46.9793 87.424 46.9793 87.6575C46.9793 87.8909 46.8865 88.1149 46.7214 88.28C46.5563 88.445 46.3324 88.5378 46.0989 88.5378Z" fill="white"/>
<path d="M37.2119 88.5378H35.7307C35.4972 88.5378 35.2733 88.445 35.1082 88.28C34.9431 88.1149 34.8503 87.8909 34.8503 87.6575C34.8503 87.424 34.9431 87.2 35.1082 87.035C35.2733 86.8699 35.4972 86.7771 35.7307 86.7771H37.2119C37.4454 86.7771 37.6693 86.8699 37.8344 87.035C37.9995 87.2 38.0923 87.424 38.0923 87.6575C38.0923 87.8909 37.9995 88.1149 37.8344 88.28C37.6693 88.445 37.4454 88.5378 37.2119 88.5378Z" fill="white"/>
<path d="M50.0119 137.977H49.2852C41.946 137.966 34.6958 136.369 28.0311 133.295C26.3802 133.248 24.8129 132.559 23.6621 131.374C22.5114 130.19 21.868 128.603 21.8687 126.951V100.317C21.8723 99.1139 22.352 97.9609 23.2029 97.11C24.0538 96.2591 25.2068 95.7795 26.4101 95.7758C27.2725 95.7721 28.0985 95.4279 28.7083 94.8181C29.3181 94.2083 29.6624 93.3823 29.666 92.5199V90.4937C29.666 89.2731 30.1499 88.1023 31.0117 87.2379C31.8735 86.3735 33.0428 85.886 34.2634 85.8823H65.0058C66.2264 85.886 67.3957 86.3735 68.2575 87.2379C69.1192 88.1023 69.6032 89.2731 69.6032 90.4937V92.5199C69.6032 93.3834 69.9462 94.2115 70.5568 94.8221C71.1674 95.4327 71.9955 95.7758 72.8591 95.7758C74.0624 95.7795 75.2154 96.2591 76.0663 97.11C76.9172 97.9609 77.3969 99.1139 77.4005 100.317V126.951C77.3977 128.602 76.7531 130.187 75.6031 131.37C74.4531 132.554 72.8878 133.245 71.2381 133.295C64.5815 136.364 57.3415 137.96 50.0119 137.977ZM34.2634 87.4055C33.4541 87.4201 32.6829 87.7519 32.1158 88.3295C31.5486 88.9071 31.231 89.6842 31.2311 90.4937V92.5199C31.2274 93.7862 30.7227 94.9997 29.8273 95.8951C28.9318 96.7905 27.7184 97.2952 26.4521 97.2989C25.6515 97.2989 24.8838 97.6169 24.3178 98.183C23.7517 98.749 23.4337 99.5167 23.4337 100.317V126.951C23.4337 128.227 23.9397 129.452 24.8408 130.355C25.7419 131.259 26.9645 131.769 28.2407 131.772C28.3468 131.751 28.456 131.751 28.5621 131.772C35.0664 134.8 42.1526 136.374 49.3272 136.384H50.0538C57.2284 136.374 64.3146 134.8 70.8189 131.772C70.925 131.751 71.0342 131.751 71.1403 131.772C72.4164 131.769 73.6391 131.259 74.5402 130.355C75.4413 129.452 75.9473 128.227 75.9473 126.951V100.317C75.9473 99.5167 75.6293 98.749 75.0632 98.183C74.4972 97.6169 73.7294 97.2989 72.9289 97.2989C72.3013 97.2989 71.6799 97.1753 71.1001 96.9351C70.5202 96.695 69.9934 96.3429 69.5496 95.8992C69.1058 95.4554 68.7538 94.9286 68.5137 94.3487C68.2735 93.7689 68.1499 93.1475 68.1499 92.5199V90.4937C68.1499 89.6771 67.8264 88.8937 67.2503 88.3149C66.6742 87.7362 65.8923 87.4092 65.0756 87.4055H34.2634Z" fill="black"/>
<path d="M65.5233 119.434C65.4707 119.434 65.4186 119.424 65.3702 119.403C65.3218 119.383 65.278 119.353 65.2415 119.315C65.205 119.277 65.1765 119.232 65.1577 119.183C65.1388 119.134 65.1301 119.082 65.132 119.029C65.132 119.029 65.2298 113.998 65.132 107.696C65.121 107.638 65.123 107.577 65.1379 107.52C65.1528 107.462 65.1803 107.408 65.2183 107.363C65.2563 107.317 65.304 107.28 65.3579 107.255C65.4118 107.229 65.4707 107.216 65.5302 107.216C65.5898 107.216 65.6486 107.229 65.7026 107.255C65.7565 107.28 65.8041 107.317 65.8421 107.363C65.8802 107.408 65.9076 107.462 65.9226 107.52C65.9375 107.577 65.9395 107.638 65.9285 107.696C65.9285 114.012 65.9285 119.001 65.9285 119.043C65.9285 119.096 65.918 119.148 65.8974 119.196C65.8769 119.244 65.8468 119.288 65.809 119.325C65.7712 119.361 65.7264 119.39 65.6773 119.409C65.6282 119.427 65.5758 119.436 65.5233 119.434Z" fill="#181728"/>
<path d="M67.3395 111.567C67.2357 111.567 67.1362 111.526 67.0628 111.452C66.9895 111.379 66.9482 111.28 66.9482 111.176V105.67C66.9657 105.577 67.0151 105.493 67.0878 105.433C67.1605 105.373 67.252 105.34 67.3465 105.34C67.441 105.34 67.5325 105.373 67.6052 105.433C67.6779 105.493 67.7273 105.577 67.7447 105.67C67.7447 107.473 67.7447 109.317 67.7447 111.176C67.7448 111.228 67.7342 111.28 67.7137 111.329C67.6932 111.377 67.6631 111.421 67.6253 111.458C67.5874 111.494 67.5426 111.523 67.4935 111.541C67.4444 111.56 67.3921 111.569 67.3395 111.567Z" fill="#181728"/>
<path d="M28.8278 132.835C28.7752 132.835 28.7232 132.825 28.6748 132.804C28.6264 132.783 28.5826 132.753 28.5461 132.716C28.5095 132.678 28.481 132.633 28.4622 132.584C28.4434 132.535 28.4347 132.482 28.4365 132.43C28.4365 132.43 28.5483 127.399 28.5204 121.097C28.5204 120.993 28.5616 120.894 28.635 120.82C28.7083 120.747 28.8079 120.706 28.9116 120.706C29.0154 120.706 29.1149 120.747 29.1883 120.82C29.2617 120.894 29.3029 120.993 29.3029 121.097C29.3029 127.413 29.233 132.402 29.233 132.444C29.2331 132.496 29.2225 132.548 29.202 132.597C29.1814 132.645 29.1514 132.689 29.1135 132.726C29.0757 132.762 29.0309 132.791 28.9818 132.809C28.9327 132.828 28.8803 132.837 28.8278 132.835Z" fill="#181728"/>
<path d="M36.5131 20.0383C26.7315 22.0925 21.8965 32.3493 21.8965 32.3493C8.30003 37.9388 11.3743 50.5152 11.3743 50.5152H14.9655C14.9655 50.5152 52.6948 18.7248 87.783 50.5152C88.4763 47.0292 88.2495 43.4227 87.1248 40.051C86.0001 36.6794 84.0163 33.6589 81.369 31.2872C72.1463 22.5676 72.6634 17.6907 67.2695 17.4392" fill="#3144F1"/>
<path d="M87.7969 49.9562C52.6807 18.1658 14.9934 49.9562 14.9934 49.9562H11.3881C11.05 48.2299 10.9934 46.4603 11.2205 44.716C11.2521 45.0734 11.3081 45.4282 11.3881 45.778H14.9934C14.9934 45.778 52.7226 13.9876 87.7969 45.778C87.7969 45.778 87.9506 45.1212 88.0903 43.9893C88.3266 45.9807 88.2274 47.9976 87.7969 49.9562Z" fill="#2564BF"/>
<path d="M25.3341 32.2515L23.3079 31.0637C23.5035 30.7424 28.0869 23.0428 35.2555 20.9607L35.9122 23.2105C29.624 25.0271 25.376 32.1397 25.3341 32.2515Z" fill="#2564BF"/>
<path d="M79.3429 33.3556C76.1322 30.1485 72.1611 27.8072 67.8005 26.5504L68.3874 24.2866C73.1977 25.6413 77.5712 28.2278 81.0756 31.7906L79.3429 33.3556Z" fill="#2564BF"/>
<path d="M86.3436 38.945C86.191 38.9458 86.0414 38.9027 85.9126 38.821C85.7838 38.7392 85.6812 38.6222 85.6169 38.4838C84.4607 36.0038 82.8382 33.7693 80.8379 31.9022C77.0507 28.4508 72.5024 25.9421 67.5628 24.5799C67.4601 24.5585 67.3628 24.5167 67.2766 24.4569C67.1904 24.3972 67.1171 24.3207 67.0611 24.2321C67.005 24.1434 66.9674 24.0444 66.9503 23.9409C66.9333 23.8375 66.9372 23.7316 66.9619 23.6297C67.0148 23.4287 67.143 23.2557 67.3198 23.1464C67.4967 23.0372 67.7087 23.0001 67.9121 23.0428C73.1267 24.4426 77.9225 27.0899 81.8859 30.7563C84.0771 32.749 85.8572 35.151 87.1261 37.8271C87.1704 37.9214 87.1954 38.0236 87.1997 38.1277C87.2039 38.2318 87.1873 38.3358 87.1509 38.4334C87.1145 38.531 87.0589 38.6204 86.9874 38.6962C86.916 38.7721 86.8301 38.8329 86.7348 38.8751C86.6113 38.9274 86.4776 38.9513 86.3436 38.945Z" fill="black"/>
<path d="M14.3508 42.7595L12.0452 42.3263C12.443 40.3322 13.5014 38.5303 15.0495 37.2119L16.4469 39.0984C15.3687 40.0583 14.6328 41.3437 14.3508 42.7595Z" fill="#2564BF"/>
<path d="M14.4622 38.4277C14.2836 38.4227 14.1117 38.3588 13.9731 38.246C13.8106 38.1123 13.7075 37.9196 13.6866 37.7101C13.6656 37.5007 13.7285 37.2914 13.8613 37.1281C15.4092 35.274 17.3089 33.7447 19.4509 32.6286C20.6336 32.0044 21.6349 31.085 22.3574 29.9596C24.4675 26.6198 29.0928 20.7928 36.3312 19.2696C36.4331 19.2472 36.5385 19.2454 36.6412 19.2643C36.7438 19.2832 36.8416 19.3225 36.9289 19.3798C37.0161 19.4371 37.091 19.5112 37.1492 19.5979C37.2073 19.6846 37.2475 19.782 37.2675 19.8845C37.3088 20.09 37.2675 20.3036 37.1524 20.4789C37.0373 20.6542 36.8577 20.777 36.6526 20.8207C29.9731 22.2181 25.6413 27.6818 23.6849 30.7421C22.8177 32.1009 21.6144 33.2127 20.1915 33.97C18.2268 34.9802 16.4871 36.3777 15.0771 38.0783C15.0076 38.1792 14.9162 38.2631 14.8098 38.3236C14.7033 38.3841 14.5844 38.4197 14.4622 38.4277Z" fill="black"/>
<path d="M11.2485 45.9039H11.1367C10.9298 45.8727 10.7435 45.7615 10.618 45.5941C10.4925 45.4268 10.4379 45.2168 10.4659 45.0095C10.6518 43.6775 10.9991 42.373 11.5 41.1248C11.5384 41.0293 11.5953 40.9423 11.6674 40.8688C11.7395 40.7953 11.8254 40.7368 11.9201 40.6965C12.0149 40.6563 12.1167 40.6351 12.2196 40.6343C12.3226 40.6335 12.4247 40.6529 12.5201 40.6916C12.7141 40.7724 12.8693 40.9253 12.9527 41.1183C13.0361 41.3112 13.0413 41.529 12.9672 41.7257C12.512 42.8518 12.1975 44.0299 12.031 45.2331C12.0012 45.4195 11.9062 45.5893 11.7628 45.7121C11.6195 45.835 11.4372 45.9029 11.2485 45.9039Z" fill="black"/>
<path d="M24.5935 23.2522C24.3984 23.254 24.206 23.2059 24.0346 23.1124C23.8986 23.0392 23.7785 22.9399 23.681 22.8201C23.5835 22.7003 23.5106 22.5625 23.4664 22.4145C23.4223 22.2666 23.4078 22.1113 23.4238 21.9577C23.4397 21.8041 23.4858 21.6552 23.5595 21.5194C26.256 16.8528 30.026 12.896 34.5569 9.97708C34.8238 9.81823 35.1429 9.77169 35.4441 9.84765C35.7453 9.92361 36.0041 10.1159 36.1638 10.3823C36.2444 10.514 36.2978 10.6604 36.321 10.813C36.3442 10.9656 36.3367 11.1213 36.299 11.271C36.2612 11.4206 36.194 11.5613 36.1012 11.6846C36.0084 11.808 35.8919 11.9116 35.7586 11.9893C31.599 14.6974 28.1336 18.3447 25.6416 22.6373C25.5384 22.8247 25.3866 22.9807 25.2021 23.0889C25.0177 23.1971 24.8074 23.2535 24.5935 23.2522Z" fill="#C6DBFF"/>
<path d="M40.0903 9.78089C39.8476 9.78239 39.6105 9.70769 39.4124 9.5673C39.2144 9.42691 39.0653 9.22792 38.9864 8.99836C38.8826 8.70734 38.8978 8.38715 39.0286 8.10724C39.1594 7.82733 39.3953 7.61027 39.6851 7.50316C41.4712 6.87748 43.3088 6.40989 45.1768 6.10578C45.3335 6.06929 45.4961 6.06622 45.6541 6.09676C45.8121 6.12731 45.9619 6.19078 46.0937 6.28306C46.2256 6.37534 46.3365 6.49435 46.4192 6.63234C46.502 6.77033 46.5548 6.9242 46.5742 7.08395C46.6084 7.24051 46.6099 7.40248 46.5784 7.55963C46.5469 7.71678 46.4832 7.8657 46.3913 7.997C46.2994 8.1283 46.1813 8.23912 46.0444 8.32248C45.9075 8.40584 45.7548 8.45993 45.596 8.48133C43.8807 8.75764 42.1928 9.18313 40.5514 9.75294C40.4004 9.78778 40.2445 9.79722 40.0903 9.78089Z" fill="white"/>
<path d="M80.7679 31.2178C80.5787 31.2159 80.3965 31.1455 80.2552 31.0196C80.1139 30.8937 80.023 30.7208 79.9994 30.5331C79.2735 25.194 76.9723 20.1926 73.3898 16.168C73.3158 16.0963 73.257 16.0106 73.2168 15.9157C73.1767 15.8209 73.156 15.719 73.156 15.616C73.156 15.5131 73.1767 15.4111 73.2168 15.3163C73.257 15.2215 73.3158 15.1357 73.3898 15.0641C73.4672 14.9941 73.5578 14.9402 73.6563 14.9058C73.7548 14.8713 73.8593 14.857 73.9634 14.8635C74.0676 14.87 74.1694 14.8973 74.2629 14.9437C74.3563 14.9902 74.4396 15.0548 74.5077 15.1339C78.3155 19.3812 80.7637 24.6718 81.5365 30.3235C81.5643 30.5328 81.5077 30.7447 81.3793 30.9124C81.2509 31.0801 81.0612 31.19 80.8518 31.2178H80.7679Z" fill="black"/>
<path d="M71.3641 13.8198C71.1727 13.8253 70.9869 13.755 70.847 13.6242C69.6035 12.5431 68.2765 11.5618 66.8785 10.6897C66.7017 10.5775 66.5763 10.4003 66.5292 10.1963C66.4821 9.99233 66.5172 9.77802 66.627 9.59974C66.6812 9.51079 66.7527 9.43358 66.8372 9.37262C66.9217 9.31167 67.0175 9.2682 67.119 9.24477C67.2206 9.22134 67.3257 9.21842 67.4284 9.23619C67.5311 9.25395 67.6292 9.29204 67.7169 9.34821C69.1955 10.2625 70.5975 11.2953 71.909 12.4364C71.9834 12.5093 72.0425 12.5962 72.0828 12.6922C72.1231 12.7882 72.1439 12.8913 72.1439 12.9954C72.1439 13.0995 72.1231 13.2025 72.0828 13.2985C72.0425 13.3945 71.9834 13.4815 71.909 13.5543C71.8415 13.6339 71.7582 13.6985 71.6644 13.7442C71.5706 13.7899 71.4683 13.8157 71.3641 13.8198Z" fill="black"/>
<path d="M20.4712 33.0342C20.3683 33.0271 20.2679 32.9998 20.1756 32.9538C20.0834 32.9078 20.0011 32.844 19.9336 32.7661C19.8661 32.6881 19.8146 32.5977 19.7822 32.4998C19.7497 32.4019 19.737 32.2986 19.7446 32.1958C20.6808 16.7687 34.3192 4.55563 50.7105 4.55563C54.2394 4.54749 57.7461 5.11385 61.0931 6.23248C61.9594 6.52593 62.7979 6.84733 63.6223 7.21065C63.7171 7.25164 63.8028 7.31098 63.8745 7.38523C63.9462 7.45949 64.0025 7.54721 64.0402 7.64333C64.0778 7.73945 64.0961 7.84207 64.094 7.94528C64.0918 8.04849 64.0692 8.15026 64.0275 8.24471C63.9444 8.43611 63.7896 8.58725 63.5962 8.66564C63.4028 8.74404 63.1864 8.74342 62.9935 8.66393C62.205 8.31281 61.398 8.00493 60.576 7.74165C57.3919 6.6733 54.0551 6.13053 50.6965 6.13467C35.1297 6.13467 22.19 17.6211 21.2398 32.2936C21.2325 32.4926 21.1484 32.681 21.005 32.8191C20.8617 32.9572 20.6703 33.0344 20.4712 33.0342Z" fill="black"/>
<path d="M42.0186 17.4812C44.5036 17.4812 46.5182 16.4114 46.5182 15.0917C46.5182 13.772 44.5036 12.7021 42.0186 12.7021C39.5336 12.7021 37.519 13.772 37.519 15.0917C37.519 16.4114 39.5336 17.4812 42.0186 17.4812Z" fill="#C6DBFF"/>
<path d="M47.1194 12.702C47.7754 12.702 48.3072 12.1702 48.3072 11.5142C48.3072 10.8582 47.7754 10.3264 47.1194 10.3264C46.4634 10.3264 45.9316 10.8582 45.9316 11.5142C45.9316 12.1702 46.4634 12.702 47.1194 12.702Z" fill="#C6DBFF"/>
<path d="M33.5508 28.5763C33.9444 28.5763 34.2635 28.2573 34.2635 27.8637C34.2635 27.4701 33.9444 27.151 33.5508 27.151C33.1572 27.151 32.8381 27.4701 32.8381 27.8637C32.8381 28.2573 33.1572 28.5763 33.5508 28.5763Z" fill="#2564BF"/>
<path d="M27.6121 30.2245C28.0057 30.2245 28.3247 29.9055 28.3247 29.5119C28.3247 29.1183 28.0057 28.7992 27.6121 28.7992C27.2185 28.7992 26.8994 29.1183 26.8994 29.5119C26.8994 29.9055 27.2185 30.2245 27.6121 30.2245Z" fill="#2564BF"/>
<path d="M30.6583 28.3667C30.9362 28.3667 31.1614 28.1415 31.1614 27.8637C31.1614 27.5858 30.9362 27.3606 30.6583 27.3606C30.3805 27.3606 30.1553 27.5858 30.1553 27.8637C30.1553 28.1415 30.3805 28.3667 30.6583 28.3667Z" fill="#2564BF"/>
<path d="M34.2633 25.9071C34.5411 25.9071 34.7664 25.6819 34.7664 25.4041C34.7664 25.1262 34.5411 24.901 34.2633 24.901C33.9855 24.901 33.7603 25.1262 33.7603 25.4041C33.7603 25.6819 33.9855 25.9071 34.2633 25.9071Z" fill="#2564BF"/>
<path d="M31.161 30.5191C31.4388 30.5191 31.6641 30.2938 31.6641 30.016C31.6641 29.7382 31.4388 29.5129 31.161 29.5129C30.8832 29.5129 30.658 29.7382 30.658 30.016C30.658 30.2938 30.8832 30.5191 31.161 30.5191Z" fill="#2564BF"/>
<path d="M33.3967 30.7142C33.5896 30.7142 33.7461 30.5578 33.7461 30.3648C33.7461 30.1719 33.5896 30.0155 33.3967 30.0155C33.2038 30.0155 33.0474 30.1719 33.0474 30.3648C33.0474 30.5578 33.2038 30.7142 33.3967 30.7142Z" fill="#2564BF"/>
<path d="M48.7124 23.0291C48.9053 23.0291 49.0617 22.8727 49.0617 22.6798C49.0617 22.4869 48.9053 22.3304 48.7124 22.3304C48.5194 22.3304 48.363 22.4869 48.363 22.6798C48.363 22.8727 48.5194 23.0291 48.7124 23.0291Z" fill="#2564BF"/>
<path d="M62.9656 15.0782C63.1585 15.0782 63.3149 14.9218 63.3149 14.7289C63.3149 14.5359 63.1585 14.3795 62.9656 14.3795C62.7726 14.3795 62.6162 14.5359 62.6162 14.7289C62.6162 14.9218 62.7726 15.0782 62.9656 15.0782Z" fill="#2564BF"/>
<path d="M57.5019 17.8305C57.6949 17.8305 57.8513 17.6741 57.8513 17.4812C57.8513 17.2882 57.6949 17.1318 57.5019 17.1318C57.309 17.1318 57.1526 17.2882 57.1526 17.4812C57.1526 17.6741 57.309 17.8305 57.5019 17.8305Z" fill="#2564BF"/>
<path d="M49.9978 17.4672C50.1907 17.4672 50.3471 17.3108 50.3471 17.1179C50.3471 16.925 50.1907 16.7686 49.9978 16.7686C49.8048 16.7686 49.6484 16.925 49.6484 17.1179C49.6484 17.3108 49.8048 17.4672 49.9978 17.4672Z" fill="#2564BF"/>
<path d="M66.7243 32.7409C66.9173 32.7409 67.0737 32.5845 67.0737 32.3916C67.0737 32.1986 66.9173 32.0422 66.7243 32.0422C66.5314 32.0422 66.375 32.1986 66.375 32.3916C66.375 32.5845 66.5314 32.7409 66.7243 32.7409Z" fill="#2564BF"/>
<path d="M22.2458 38.1764C22.4388 38.1764 22.5952 38.0199 22.5952 37.827C22.5952 37.6341 22.4388 37.4777 22.2458 37.4777C22.0529 37.4777 21.8965 37.6341 21.8965 37.827C21.8965 38.0199 22.0529 38.1764 22.2458 38.1764Z" fill="#2564BF"/>
<path d="M57.8511 32.014C58.044 32.014 58.2004 31.8576 58.2004 31.6647C58.2004 31.4717 58.044 31.3153 57.8511 31.3153C57.6581 31.3153 57.5017 31.4717 57.5017 31.6647C57.5017 31.8576 57.6581 32.014 57.8511 32.014Z" fill="#2564BF"/>
<path d="M49.6487 28.9957C49.8416 28.9957 49.998 28.8393 49.998 28.6463C49.998 28.4534 49.8416 28.297 49.6487 28.297C49.4557 28.297 49.2993 28.4534 49.2993 28.6463C49.2993 28.8393 49.4557 28.9957 49.6487 28.9957Z" fill="#2564BF"/>
<path d="M26.9131 34.3614C27.106 34.3614 27.2624 34.205 27.2624 34.0121C27.2624 33.8191 27.106 33.6627 26.9131 33.6627C26.7201 33.6627 26.5637 33.8191 26.5637 34.0121C26.5637 34.205 26.7201 34.3614 26.9131 34.3614Z" fill="#2564BF"/>
<path d="M22.8191 35.1444C23.012 35.1444 23.1684 34.988 23.1684 34.795C23.1684 34.6021 23.012 34.4457 22.8191 34.4457C22.6261 34.4457 22.4697 34.6021 22.4697 34.795C22.4697 34.988 22.6261 35.1444 22.8191 35.1444Z" fill="#2564BF"/>
<path d="M50.7104 5.35196L51.1856 2.52926L52.2755 5.35196L52.9742 0L53.8126 5.35196" fill="black"/>
<path d="M51.4932 4.6393L52.9744 0L53.0163 4.6393" fill="black"/>
<path d="M18.5989 34.3473L16.936 32.0277L19.7028 33.2434L16.4189 28.9674L20.7927 32.1534" fill="black"/>
<path d="M18.6548 33.2993L16.4189 28.9674L19.7307 32.2233" fill="black"/>
<path d="M82.0818 32.2093L83.7447 29.8756L80.9779 31.0914L84.2617 26.8293L79.8879 30.0154" fill="black"/>
<path d="M82.0257 31.1472L84.2615 26.8293L80.9497 30.0713" fill="black"/>
<path d="M87.7832 51.3396C87.5887 51.3391 87.4006 51.2698 87.2522 51.144C53.0304 20.164 15.8461 50.8365 15.4828 51.144C15.3362 51.2617 15.1538 51.3258 14.9657 51.3256H11.3745C11.1997 51.3241 11.0304 51.2642 10.8936 51.1553C10.7568 51.0464 10.6605 50.8948 10.6199 50.7247C10.381 49.6703 10.2637 48.5919 10.2705 47.5108C10.2686 47.4075 10.2876 47.3049 10.3262 47.2091C10.3649 47.1133 10.4225 47.0263 10.4955 46.9532C10.5686 46.8802 10.6556 46.8226 10.7514 46.7839C10.8472 46.7453 10.9498 46.7263 11.0531 46.7282C11.2619 46.7282 11.4624 46.8102 11.6114 46.9566C11.7604 47.1029 11.8459 47.3019 11.8496 47.5108C11.8492 48.2448 11.9006 48.9779 12.0033 49.7047H14.6583C17.8723 47.1474 53.7849 19.8985 87.2242 48.964C87.529 46.4031 87.3345 43.8073 86.6513 41.3204C86.5952 41.1184 86.6209 40.9025 86.7229 40.7194C86.8249 40.5363 86.995 40.4007 87.1963 40.3422C87.2972 40.3147 87.4026 40.3073 87.5064 40.3205C87.6102 40.3336 87.7103 40.3671 87.8012 40.4191C87.892 40.471 87.9717 40.5403 88.0358 40.623C88.0998 40.7057 88.1469 40.8002 88.1745 40.9012C89.0902 44.0839 89.2102 47.4429 88.5238 50.6828C88.4874 50.8143 88.4183 50.9345 88.323 51.0322C88.2278 51.1299 88.1094 51.202 87.9788 51.2418L87.7832 51.3396Z" fill="black"/>
<path opacity="0.4" d="M45.2825 55.5305L44.2295 55.1454C42.5146 54.5437 40.9441 53.4185 39.2894 53.5148C37.6995 53.7056 36.1787 54.2751 34.8547 55.1755L33.7535 55.5486L33.0134 52.9973L34.1086 52.6724C34.3553 52.6002 40.2401 50.8973 45.1381 52.7025L46.1429 53.0695L45.2825 55.5305Z" fill="#F57A59"/>
<path d="M45.469 54.2608L44.2295 53.8095C40.1438 52.3052 34.9028 53.8095 34.8547 53.8095L33.5911 54.1825L32.845 51.6553L34.1086 51.2823C34.3553 51.2101 40.2401 49.5072 45.1381 51.2823L46.3776 51.7396L45.469 54.2608Z" fill="#582C22"/>
<path d="M45.8119 53.2743L45.5291 54.0506L44.2896 53.5993C40.2099 52.107 34.9629 53.5993 34.9148 53.6294L33.6452 54.0024L33.4165 53.2142L34.5477 52.8892C34.5959 52.8892 40.24 51.3669 44.6385 52.8892L45.8119 53.2743Z" fill="#0E0908"/>
<path d="M33.6453 52.1426C33.5923 52.1409 33.541 52.1234 33.4981 52.0923C33.4552 52.0612 33.4226 52.0179 33.4046 51.9681C33.3943 51.9365 33.3903 51.9031 33.3929 51.87C33.3954 51.8368 33.4045 51.8045 33.4196 51.7749C33.4347 51.7453 33.4555 51.7189 33.4808 51.6973C33.5061 51.6758 33.5354 51.6594 33.567 51.6492C34.8791 51.2315 36.2331 50.9591 37.6046 50.8368C37.638 50.8344 37.6715 50.8388 37.7031 50.8497C37.7348 50.8606 37.7639 50.8778 37.7886 50.9003C37.8134 50.9229 37.8333 50.9502 37.8472 50.9806C37.8611 51.0111 37.8686 51.0441 37.8693 51.0775C37.8718 51.1104 37.8676 51.1435 37.8571 51.1747C37.8465 51.206 37.8298 51.2348 37.8079 51.2595C37.786 51.2842 37.7594 51.3042 37.7297 51.3184C37.6999 51.3327 37.6676 51.3408 37.6347 51.3423C36.307 51.4642 34.9959 51.7264 33.7235 52.1245C33.699 52.1361 33.6723 52.1423 33.6453 52.1426Z" fill="white"/>
<path d="M45.4691 54.4896H45.3909L44.1754 54.0203C40.1379 52.54 34.9932 54.0203 34.945 54.0564L33.6814 54.4294C33.6224 54.4448 33.5598 54.4372 33.5062 54.4081C33.4526 54.3791 33.412 54.3308 33.3926 54.273L32.6465 51.7458C32.6347 51.7182 32.6287 51.6885 32.6287 51.6585C32.6287 51.6285 32.6347 51.5989 32.6465 51.5713C32.6756 51.5163 32.7254 51.4752 32.7849 51.4569L34.0485 51.0839C36.9992 50.2782 40.0853 50.0958 43.1104 50.5484C43.14 50.5534 43.1684 50.5643 43.1938 50.5804C43.2192 50.5965 43.2412 50.6174 43.2586 50.642C43.2759 50.6666 43.2882 50.6944 43.2948 50.7237C43.3014 50.7531 43.3021 50.7835 43.2969 50.8131C43.2852 50.8735 43.2503 50.9268 43.1996 50.9617C43.149 50.9966 43.0867 51.0102 43.0261 50.9996C40.0714 50.5572 37.0568 50.7355 34.1748 51.5231L33.1339 51.836L33.7356 53.924L34.7886 53.5991C34.8367 53.5991 40.1439 52.0466 44.3078 53.5991L45.3307 53.9721L46.0828 51.9323L45.0599 51.5532C44.7891 51.4569 44.5184 51.3667 44.2416 51.2885C44.1834 51.2717 44.1342 51.2325 44.1048 51.1794C44.0755 51.1264 44.0684 51.0639 44.0851 51.0057C44.1019 50.9474 44.1411 50.8982 44.1942 50.8689C44.2472 50.8396 44.3097 50.8325 44.3679 50.8492C44.6508 50.9274 44.9697 51.0237 45.2164 51.126L46.4559 51.5773C46.5113 51.6007 46.5562 51.6435 46.5823 51.6976C46.5956 51.7248 46.6025 51.7546 46.6025 51.7849C46.6025 51.8151 46.5956 51.845 46.5823 51.8721L45.6797 54.3392C45.6655 54.3836 45.6373 54.4222 45.5993 54.4493C45.5614 54.4764 45.5157 54.4905 45.4691 54.4896Z" fill="black"/>
<path d="M40.0173 52.3834L42.9597 51.7456L41.7864 52.6" fill="#0E0908"/>
<path d="M41.1487 52.3834L44.0911 51.7456L42.9237 52.6" fill="#0E0908"/>
<path d="M35.8593 51.9444C35.9856 51.9444 36.0879 51.842 36.0879 51.7157C36.0879 51.5894 35.9856 51.4871 35.8593 51.4871C35.733 51.4871 35.6306 51.5894 35.6306 51.7157C35.6306 51.842 35.733 51.9444 35.8593 51.9444Z" fill="white"/>
<path d="M35.3539 51.8779C35.4436 51.8779 35.5163 51.8052 35.5163 51.7154C35.5163 51.6257 35.4436 51.553 35.3539 51.553C35.2641 51.553 35.1914 51.6257 35.1914 51.7154C35.1914 51.8052 35.2641 51.8779 35.3539 51.8779Z" fill="white"/>
<path d="M33.2302 53.1241C33.1998 53.125 33.17 53.1148 33.1464 53.0955C33.1228 53.0762 33.107 53.0491 33.1019 53.019C33.0968 52.989 33.1027 52.9581 33.1185 52.9321C33.1344 52.906 33.1591 52.8866 33.1881 52.8774C33.9727 52.5968 34.7773 52.3756 35.595 52.2155C35.6117 52.211 35.6291 52.2102 35.6461 52.2131C35.6631 52.216 35.6793 52.2226 35.6936 52.2323C35.7078 52.242 35.7198 52.2546 35.7288 52.2694C35.7377 52.2841 35.7434 52.3006 35.7454 52.3178C35.7489 52.3344 35.749 52.3515 35.7457 52.3682C35.7424 52.3848 35.7358 52.4007 35.7262 52.4147C35.7167 52.4287 35.7044 52.4407 35.6901 52.4499C35.6758 52.4591 35.6599 52.4653 35.6431 52.4682C34.8475 52.625 34.065 52.8422 33.3024 53.118L33.2302 53.1241Z" fill="black"/>
<path d="M33.3444 53.5989C33.3182 53.5983 33.2929 53.59 33.2714 53.575C33.25 53.56 33.2335 53.539 33.224 53.5147C33.2183 53.4989 33.2159 53.4821 33.2167 53.4654C33.2176 53.4486 33.2218 53.4322 33.2291 53.417C33.2363 53.4019 33.2466 53.3884 33.2591 53.3773C33.2717 53.3661 33.2864 53.3576 33.3023 53.3522C33.3023 53.3522 33.8017 53.1657 34.5057 52.9731C34.5384 52.9656 34.5727 52.9707 34.6017 52.9874C34.6307 53.0042 34.6523 53.0313 34.6621 53.0634C34.6667 53.0796 34.6679 53.0965 34.6658 53.1132C34.6637 53.1299 34.6583 53.146 34.6499 53.1606C34.6415 53.1752 34.6303 53.1879 34.6169 53.1981C34.6035 53.2083 34.5882 53.2157 34.5719 53.2198C33.91 53.4064 33.4226 53.5929 33.4166 53.5929L33.3444 53.5989Z" fill="black"/>
<path opacity="0.4" d="M69.0383 55.5305L67.9853 55.1454C66.2704 54.5437 64.6999 53.4185 63.0452 53.5148C61.4554 53.7056 59.9346 54.2751 58.6105 55.1755L57.5094 55.5486L56.7693 52.9973L57.8644 52.6724C58.1111 52.6002 63.9959 50.8973 68.8939 52.7025L69.8988 53.0695L69.0383 55.5305Z" fill="#F57A59"/>
<path d="M69.2249 54.2608L67.9853 53.8095C63.8997 52.3052 58.6587 53.8095 58.6106 53.8095L57.347 54.1825L56.6008 51.6553L57.8644 51.2823C58.1111 51.2101 63.9959 49.5072 68.8939 51.2823L70.1335 51.7396L69.2249 54.2608Z" fill="#582C22"/>
<path d="M69.5678 53.2743L69.285 54.0506L68.0454 53.5993C63.9658 52.107 58.7188 53.5993 58.6706 53.6294L57.401 54.0024L57.1724 53.2142L58.3036 52.8892C58.3517 52.8892 63.9958 51.3669 68.3944 52.8892L69.5678 53.2743Z" fill="#0E0908"/>
<path d="M57.4011 52.1426C57.3481 52.1409 57.2969 52.1234 57.254 52.0923C57.2111 52.0612 57.1785 52.0179 57.1604 51.9681C57.1501 51.9365 57.1461 51.9031 57.1487 51.87C57.1513 51.8368 57.1604 51.8045 57.1755 51.7749C57.1906 51.7453 57.2114 51.7189 57.2367 51.6973C57.262 51.6758 57.2913 51.6594 57.3229 51.6492C58.635 51.2315 59.9889 50.9591 61.3604 50.8368C61.3938 50.8344 61.4273 50.8388 61.459 50.8497C61.4906 50.8606 61.5197 50.8778 61.5445 50.9003C61.5693 50.9229 61.5892 50.9502 61.6031 50.9806C61.6169 51.0111 61.6245 51.0441 61.6252 51.0775C61.6276 51.1104 61.6235 51.1435 61.6129 51.1747C61.6024 51.206 61.5857 51.2348 61.5638 51.2595C61.5419 51.2842 61.5153 51.3042 61.4855 51.3184C61.4558 51.3327 61.4235 51.3408 61.3905 51.3423C60.0628 51.4642 58.7518 51.7264 57.4793 52.1245C57.4549 52.1361 57.4282 52.1423 57.4011 52.1426Z" fill="white"/>
<path d="M69.2247 54.4896H69.1465L67.931 54.0203C63.8935 52.54 58.7488 54.0203 58.7006 54.0564L57.437 54.4294C57.378 54.4448 57.3154 54.4372 57.2618 54.4081C57.2082 54.3791 57.1676 54.3308 57.1482 54.273L56.4021 51.7458C56.3903 51.7182 56.3843 51.6885 56.3843 51.6585C56.3843 51.6285 56.3903 51.5989 56.4021 51.5713C56.4312 51.5163 56.481 51.4752 56.5405 51.4569L57.8041 51.0839C60.7548 50.2782 63.8409 50.0958 66.866 50.5484C66.8956 50.5534 66.924 50.5643 66.9494 50.5804C66.9748 50.5965 66.9969 50.6174 67.0142 50.642C67.0315 50.6666 67.0438 50.6944 67.0504 50.7237C67.057 50.7531 67.0577 50.7835 67.0525 50.8131C67.0408 50.8735 67.0059 50.9268 66.9552 50.9617C66.9046 50.9966 66.8423 51.0102 66.7817 50.9996C63.827 50.5572 60.8125 50.7355 57.9305 51.5231L56.8895 51.836L57.4912 53.924L58.5442 53.5991C58.5923 53.5991 63.8995 52.0466 68.0634 53.5991L69.0863 53.9721L69.8385 51.9323L68.8155 51.5532C68.5448 51.4569 68.274 51.3667 67.9972 51.2885C67.939 51.2717 67.8898 51.2325 67.8604 51.1794C67.8311 51.1264 67.824 51.0639 67.8407 51.0057C67.8575 50.9474 67.8967 50.8982 67.9498 50.8689C68.0028 50.8396 68.0653 50.8325 68.1236 50.8492C68.4064 50.9274 68.7253 51.0237 68.972 51.126L70.2115 51.5773C70.2669 51.6007 70.3118 51.6435 70.3379 51.6976C70.3512 51.7248 70.3581 51.7546 70.3581 51.7849C70.3581 51.8151 70.3512 51.845 70.3379 51.8721L69.4353 54.3392C69.4211 54.3836 69.3929 54.4222 69.3549 54.4493C69.317 54.4764 69.2713 54.4905 69.2247 54.4896Z" fill="black"/>
<path d="M63.7732 52.3834L66.7156 51.7456L65.5422 52.6" fill="#0E0908"/>
<path d="M64.9045 52.3834L67.8469 51.7456L66.6796 52.6" fill="#0E0908"/>
<path d="M59.6154 51.9444C59.7417 51.9444 59.844 51.842 59.844 51.7157C59.844 51.5894 59.7417 51.4871 59.6154 51.4871C59.4891 51.4871 59.3867 51.5894 59.3867 51.7157C59.3867 51.842 59.4891 51.9444 59.6154 51.9444Z" fill="white"/>
<path d="M59.11 51.8779C59.1997 51.8779 59.2724 51.8052 59.2724 51.7154C59.2724 51.6257 59.1997 51.553 59.11 51.553C59.0202 51.553 58.9475 51.6257 58.9475 51.7154C58.9475 51.8052 59.0202 51.8779 59.11 51.8779Z" fill="white"/>
<path d="M56.9861 53.1241C56.9556 53.125 56.9259 53.1148 56.9023 53.0955C56.8787 53.0762 56.8629 53.0491 56.8578 53.019C56.8526 52.989 56.8585 52.9581 56.8744 52.9321C56.8902 52.906 56.9149 52.8866 56.944 52.8774C57.7286 52.5968 58.5331 52.3756 59.3508 52.2155C59.3675 52.211 59.3849 52.2102 59.402 52.2131C59.419 52.216 59.4351 52.2226 59.4494 52.2323C59.4637 52.242 59.4757 52.2546 59.4846 52.2694C59.4936 52.2841 59.4993 52.3006 59.5013 52.3178C59.5047 52.3344 59.5048 52.3515 59.5015 52.3682C59.4982 52.3848 59.4916 52.4007 59.4821 52.4147C59.4725 52.4287 59.4603 52.4407 59.446 52.4499C59.4317 52.4591 59.4157 52.4653 59.399 52.4682C58.6034 52.625 57.8209 52.8422 57.0583 53.118L56.9861 53.1241Z" fill="black"/>
<path d="M57.1 53.5989C57.0739 53.5983 57.0485 53.59 57.0271 53.575C57.0056 53.56 56.9891 53.539 56.9796 53.5147C56.974 53.4989 56.9715 53.4821 56.9723 53.4654C56.9732 53.4486 56.9774 53.4322 56.9847 53.417C56.992 53.4019 57.0022 53.3884 57.0148 53.3773C57.0273 53.3661 57.042 53.3576 57.0579 53.3522C57.0579 53.3522 57.5573 53.1657 58.2613 52.9731C58.294 52.9656 58.3283 52.9707 58.3573 52.9874C58.3864 53.0042 58.408 53.0313 58.4178 53.0634C58.4223 53.0796 58.4235 53.0965 58.4214 53.1132C58.4193 53.1299 58.4139 53.146 58.4055 53.1606C58.3971 53.1752 58.3859 53.1879 58.3725 53.1981C58.3591 53.2083 58.3438 53.2157 58.3275 53.2198C57.6656 53.4064 57.1782 53.5929 57.1722 53.5929L57.1 53.5989Z" fill="black"/>
<path d="M39.5995 73.608C43.9889 73.608 47.5472 70.0497 47.5472 65.6603C47.5472 61.2709 43.9889 57.7126 39.5995 57.7126C35.2101 57.7126 31.6519 61.2709 31.6519 65.6603C31.6519 70.0497 35.2101 73.608 39.5995 73.608Z" fill="white"/>
<path d="M39.6803 70.471C41.5691 70.471 43.1003 68.5307 43.1003 66.1373C43.1003 63.7439 41.5691 61.8037 39.6803 61.8037C37.7914 61.8037 36.2603 63.7439 36.2603 66.1373C36.2603 68.5307 37.7914 70.471 39.6803 70.471Z" fill="#D2F2FF"/>
<path d="M39.5268 69.4771C41.3933 69.4771 42.9064 67.5623 42.9064 65.2001C42.9064 62.838 41.3933 60.9231 39.5268 60.9231C37.6603 60.9231 36.1472 62.838 36.1472 65.2001C36.1472 67.5623 37.6603 69.4771 39.5268 69.4771Z" fill="#181828"/>
<path d="M38.3223 64.9976C39.0099 64.9976 39.5674 64.3895 39.5674 63.6393C39.5674 62.8891 39.0099 62.281 38.3223 62.281C37.6346 62.281 37.0771 62.8891 37.0771 63.6393C37.0771 64.3895 37.6346 64.9976 38.3223 64.9976Z" fill="white"/>
<path d="M39.5995 74.061C37.7235 74.0574 35.9029 73.4248 34.429 72.2643C32.955 71.1039 31.9128 69.4826 31.4691 67.6598C31.0254 65.8371 31.2058 63.9182 31.9815 62.2101C32.7571 60.502 34.0832 59.1034 35.7476 58.238C37.4121 57.3725 39.3186 57.0903 41.1624 57.4364C43.0062 57.7826 44.6806 58.737 45.9178 60.1472C47.1551 61.5573 47.8836 63.3417 47.987 65.2148C48.0904 67.0879 47.5626 68.9416 46.488 70.4793C46.4156 70.5697 46.3114 70.6289 46.1967 70.6447C46.082 70.6606 45.9656 70.632 45.8714 70.5647C45.7772 70.4974 45.7124 70.3966 45.6902 70.283C45.668 70.1693 45.6902 70.0515 45.7522 69.9538C46.7053 68.5746 47.1685 66.9156 47.0676 65.2422C46.9668 63.5688 46.3079 61.9774 45.1961 60.7226C44.0843 59.4678 42.584 58.622 40.9349 58.3203C39.2858 58.0187 37.5831 58.2787 36.0992 59.0587C34.6152 59.8387 33.4356 61.0937 32.7489 62.6231C32.0623 64.1525 31.9082 65.8679 32.3113 67.4952C32.7145 69.1225 33.6515 70.5676 34.9727 71.5996C36.2939 72.6315 37.923 73.1908 39.5995 73.1878C41.3576 73.1847 43.0594 72.567 44.4101 71.4414C44.4551 71.4034 44.5071 71.3746 44.5633 71.3568C44.6195 71.339 44.6786 71.3326 44.7373 71.3378C44.7959 71.3431 44.853 71.36 44.9051 71.3875C44.9572 71.415 45.0033 71.4526 45.0408 71.498C45.0791 71.5436 45.108 71.5964 45.1259 71.6532C45.1438 71.71 45.1503 71.7698 45.145 71.8291C45.1397 71.8885 45.1228 71.9462 45.0952 71.999C45.0676 72.0518 45.0299 72.0986 44.9842 72.1368C43.4681 73.3857 41.5637 74.0663 39.5995 74.061Z" fill="black"/>
<path d="M41.0628 67.5282C41.2994 67.5282 41.4913 67.3363 41.4913 67.0997C41.4913 66.863 41.2994 66.6711 41.0628 66.6711C40.8261 66.6711 40.6343 66.863 40.6343 67.0997C40.6343 67.3363 40.8261 67.5282 41.0628 67.5282Z" fill="white"/>
<path d="M61.9577 73.608C66.3471 73.608 69.9054 70.0497 69.9054 65.6603C69.9054 61.2709 66.3471 57.7126 61.9577 57.7126C57.5683 57.7126 54.01 61.2709 54.01 65.6603C54.01 70.0497 57.5683 73.608 61.9577 73.608Z" fill="white"/>
<path d="M62.0384 70.471C63.9272 70.471 65.4584 68.5307 65.4584 66.1373C65.4584 63.7439 63.9272 61.8037 62.0384 61.8037C60.1496 61.8037 58.6184 63.7439 58.6184 66.1373C58.6184 68.5307 60.1496 70.471 62.0384 70.471Z" fill="#D2F2FF"/>
<path d="M61.885 69.4772C63.7514 69.4772 65.2645 67.5623 65.2645 65.2001C65.2645 62.838 63.7514 60.9231 61.885 60.9231C60.0185 60.9231 58.5054 62.838 58.5054 65.2001C58.5054 67.5623 60.0185 69.4772 61.885 69.4772Z" fill="#181828"/>
<path d="M60.6804 64.9976C61.3681 64.9976 61.9255 64.3895 61.9255 63.6393C61.9255 62.8891 61.3681 62.281 60.6804 62.281C59.9928 62.281 59.4353 62.8891 59.4353 63.6393C59.4353 64.3895 59.9928 64.9976 60.6804 64.9976Z" fill="white"/>
<path d="M61.9576 74.061C60.0817 74.0574 58.2611 73.4248 56.7871 72.2643C55.3132 71.1039 54.271 69.4826 53.8273 67.6598C53.3835 65.8371 53.564 63.9182 54.3396 62.2101C55.1153 60.502 56.4414 59.1034 58.1058 58.238C59.7702 57.3725 61.6768 57.0903 63.5206 57.4364C65.3643 57.7826 67.0388 58.737 68.276 60.1472C69.5132 61.5573 70.2418 63.3417 70.3452 65.2148C70.4485 67.0879 69.9207 68.9416 68.8462 70.4793C68.7738 70.5697 68.6696 70.6289 68.5549 70.6448C68.4402 70.6606 68.3238 70.632 68.2296 70.5647C68.1354 70.4974 68.0705 70.3966 68.0484 70.283C68.0262 70.1693 68.0484 70.0515 68.1104 69.9538C69.0635 68.5746 69.5266 66.9157 69.4258 65.2422C69.325 63.5688 68.666 61.9775 67.5543 60.7226C66.4425 59.4678 64.9422 58.622 63.293 58.3203C61.6439 58.0187 59.9413 58.2787 58.4573 59.0587C56.9734 59.8387 55.7938 61.0937 55.1071 62.6231C54.4204 64.1525 54.2663 65.8679 54.6695 67.4952C55.0726 69.1225 56.0097 70.5676 57.3309 71.5996C58.6521 72.6316 60.2812 73.1908 61.9576 73.1878C63.7158 73.1848 65.4176 72.567 66.7683 71.4414C66.8132 71.4034 66.8653 71.3746 66.9215 71.3568C66.9776 71.339 67.0368 71.3326 67.0954 71.3379C67.1541 71.3431 67.2112 71.36 67.2633 71.3875C67.3154 71.415 67.3615 71.4526 67.3989 71.498C67.4372 71.5437 67.4662 71.5964 67.484 71.6532C67.5019 71.71 67.5084 71.7698 67.5032 71.8291C67.4979 71.8885 67.481 71.9462 67.4534 71.999C67.4258 72.0518 67.3881 72.0986 67.3423 72.1368C65.8263 73.3857 63.9219 74.0663 61.9576 74.061Z" fill="black"/>
<path d="M63.4209 67.5282C63.6576 67.5282 63.8495 67.3363 63.8495 67.0997C63.8495 66.863 63.6576 66.6711 63.4209 66.6711C63.1843 66.6711 62.9924 66.863 62.9924 67.0997C62.9924 67.3363 63.1843 67.5282 63.4209 67.5282Z" fill="white"/>
</svg>
