<svg width="93" height="93" viewBox="0 0 93 93" fill="none" xmlns="http://www.w3.org/2000/svg">
<!-- <path d="M93 46.5C93 72.1812 72.1812 93 46.5 93C20.8188 93 0 72.1812 0 46.5C0 20.8188 20.8188 0 46.5 0C72.1812 0 93 20.8188 93 46.5Z" fill="#0088CC"/> -->
<path d="M37.681 39.9257L33.8862 42.7586C33.8862 42.7586 32.4706 39.782 28.8621 39.819C25.393 39.8545 22.8758 43.2933 22.8758 46.2328C22.8758 49.1723 25.1605 53.2345 28.8621 53.2344C32.3362 53.2343 33.8862 50.2947 33.8862 50.2947L38.0552 52.6464C38.0552 52.6464 35.8638 57.7241 28.8621 57.7241C22.4483 57.7241 17.7982 52.3602 17.8518 46.2328C17.9078 39.819 22.4483 35.2757 28.8621 35.2759C35.3593 35.276 37.681 39.9257 37.681 39.9257Z" fill="white"/>
<path d="M56.3346 37.5741L53.9829 41.7965C53.9829 41.7965 51.3104 39.8189 48.3708 39.8189C46.8656 39.8189 45.4311 40.1842 45.4311 41.6894C45.4311 45.431 56.9225 42.0237 56.9225 51.3103C56.9225 57.4569 51.3104 57.831 48.3708 57.831C41.957 57.831 39.0173 55.212 39.0173 55.212L41.1018 50.562C41.1018 50.562 44.6294 53.0206 48.3708 53.0206C49.9742 53.0206 51.3104 52.7934 51.3104 51.3101C51.3104 48.1034 39.926 50.5086 39.926 41.6894C39.926 39.0172 42.0906 35.1689 48.3708 35.1689C54.0831 35.1689 56.3346 37.5741 56.3346 37.5741Z" fill="white"/>
<path d="M75.5758 37.5741L73.2241 41.7965C73.2241 41.7965 70.5516 39.8189 67.612 39.8189C66.1068 39.8189 64.6723 40.1842 64.6723 41.6894C64.6723 45.431 76.1637 42.0237 76.1637 51.3103C76.1637 57.4569 70.5516 57.831 67.612 57.831C61.1982 57.831 58.2585 55.212 58.2585 55.212L60.343 50.562C60.343 50.562 63.8706 53.0206 67.612 53.0206C69.2154 53.0206 70.5516 52.7934 70.5516 51.3101C70.5516 48.1034 59.1672 50.5086 59.1672 41.6894C59.1672 39.0172 61.3318 35.1689 67.612 35.1689C73.3243 35.1689 75.5758 37.5741 75.5758 37.5741Z" fill="white"/>
</svg>
