<svg width="93" height="93" viewBox="0 0 93 93" fill="none" xmlns="http://www.w3.org/2000/svg">
<!-- <path d="M93 46.5C93 72.1812 72.1812 93 46.5 93C20.8188 93 0 72.1812 0 46.5C0 20.8188 20.8188 0 46.5 0C72.1812 0 93 20.8188 93 46.5Z" fill="#222222"/> -->
<path d="M27.2585 65.4741C27.2585 60.3083 31.4462 56.1206 36.612 56.1206H46.4999V65.2068C46.4999 70.5202 42.1926 74.8275 36.8792 74.8275H36.612C31.4462 74.8275 27.2585 70.6398 27.2585 65.4741Z" fill="#0ACF83"/>
<path d="M27.2585 46.687C27.2585 41.4475 31.506 37.2 36.7456 37.2H46.4999V56.1741H36.7456C31.506 56.1741 27.2585 51.9266 27.2585 46.687Z" fill="#A259FF"/>
<path d="M27.2585 27.6059C27.2585 22.3073 31.5539 18.012 36.8525 18.012H46.4999V37.1999H36.8525C31.5539 37.1999 27.2585 32.9045 27.2585 27.6059Z" fill="#F24E1E"/>
<path d="M46.5 18.012H56.1474C61.446 18.012 65.7414 22.3073 65.7414 27.6059C65.7414 32.9045 61.446 37.1999 56.1474 37.1999H46.5V18.012Z" fill="#FF7262"/>
<path d="M65.2069 46.6069C65.2069 51.7726 61.0192 55.9603 55.8534 55.9603C50.6877 55.9603 46.5 51.7726 46.5 46.6069C46.5 41.4411 50.6877 37.2534 55.8534 37.2534C61.0192 37.2534 65.2069 41.4411 65.2069 46.6069Z" fill="#1ABCFE"/>
</svg>
