<svg width="93" height="93" viewBox="0 0 93 93" fill="none" xmlns="http://www.w3.org/2000/svg">
<!-- <path d="M46.5 93C72.1812 93 93 72.1812 93 46.5C93 20.8188 72.1812 0 46.5 0C20.8188 0 0 20.8188 0 46.5C0 72.1812 20.8188 93 46.5 93Z" fill="#F14E32"/> -->
<path d="M70.5921 44.2673L48.7263 22.4044C47.4666 21.1468 45.4256 21.1468 44.1615 22.4044L39.6317 26.9428L45.3905 32.7017C46.7361 32.2531 48.2678 32.5557 49.3316 33.6224C50.4082 34.6969 50.7051 36.2471 50.2458 37.5863L55.7915 43.137C57.1378 42.6713 58.6859 42.9739 59.7561 44.0441C61.2606 45.5464 61.2606 47.9751 59.7561 49.4774C58.256 50.9783 55.8315 50.9783 54.3314 49.4774C53.2068 48.3493 52.9249 46.6881 53.4879 45.3132L48.295 40.1467V53.7612C48.662 53.9407 49.0082 54.1854 49.313 54.4873C50.801 55.9917 50.801 58.4169 49.313 59.9127C47.8128 61.4172 45.3712 61.4172 43.8689 59.9127C42.3687 58.4126 42.3687 55.9917 43.8689 54.4916C44.2487 54.116 44.6765 53.8327 45.1315 53.6445V39.8963C44.6787 39.7067 44.2466 39.4334 43.8796 39.0593C42.7421 37.9225 42.4689 36.2593 43.0533 34.8678L37.3946 29.182L22.4009 44.1657C21.1483 45.4276 21.1483 47.4708 22.4009 48.7327L44.2673 70.5934C45.5279 71.8539 47.5688 71.8539 48.8286 70.5934L70.5921 48.8307C71.854 47.5731 71.854 45.5299 70.5921 44.2673Z" fill="white"/>
</svg>
