<svg width="93" height="93" viewBox="0 0 93 93" fill="none" xmlns="http://www.w3.org/2000/svg">
<!-- <path d="M93 46.5C93 72.1812 72.1812 93 46.5 93C20.8188 93 0 72.1812 0 46.5C0 20.8188 20.8188 0 46.5 0C72.1812 0 93 20.8188 93 46.5Z" fill="#E34F26"/> -->
<path fill-rule="evenodd" clip-rule="evenodd" d="M69.4827 21.9138H22.9827L26.9913 70.2845L46.2327 75.8966L65.474 70.2845L69.4827 21.9138ZM60.9309 32.0691H31.5344L32.8706 49.9743H53.1809L52.9137 57.1898L46.2327 59.3277L39.5516 57.1898V52.6467H33.4051L33.9396 61.8665L46.2327 65.207L58.5258 62.2674L59.862 43.8277H38.4827L38.2154 37.9484H60.3965L60.9309 32.0691Z" fill="white"/>
</svg>
