<svg width="29" height="29" viewBox="0 0 29 29" fill="none" xmlns="http://www.w3.org/2000/svg">
<path fill-rule="evenodd" clip-rule="evenodd" d="M1.75682 1.75682C2.40148 1.11216 3.27582 0.75 4.1875 0.75H12.4375C13.1969 0.75 13.8125 1.36561 13.8125 2.125C13.8125 2.88439 13.1969 3.5 12.4375 3.5H4.1875C4.00516 3.5 3.8303 3.57243 3.70136 3.70136C3.57243 3.8303 3.5 4.00516 3.5 4.1875V19.3125C3.5 19.4948 3.57243 19.6697 3.70136 19.7986C3.8303 19.9276 4.00517 20 4.1875 20H24.8125C24.9948 20 25.1697 19.9276 25.2986 19.7986C25.4276 19.6697 25.5 19.4948 25.5 19.3125V12.4375C25.5 11.6781 26.1156 11.0625 26.875 11.0625C27.6344 11.0625 28.25 11.6781 28.25 12.4375V19.3125C28.25 20.2242 27.8878 21.0985 27.2432 21.7432C26.5985 22.3878 25.7242 22.75 24.8125 22.75H15.875V26.875C15.875 27.6344 15.2594 28.25 14.5 28.25C13.7406 28.25 13.125 27.6344 13.125 26.875V22.75H4.1875C3.27582 22.75 2.40148 22.3878 1.75682 21.7432C1.11216 21.0985 0.75 20.2242 0.75 19.3125V4.1875C0.75 3.27582 1.11216 2.40148 1.75682 1.75682Z" fill="rgb(35, 131, 226)"/>
<path fill-rule="evenodd" clip-rule="evenodd" d="M20.9723 1.15273C21.5092 1.6897 21.5092 2.5603 20.9723 3.09727L19.1945 4.875L20.9723 6.65273C21.5092 7.1897 21.5092 8.0603 20.9723 8.59727C20.4353 9.13424 19.5647 9.13424 19.0277 8.59727L16.2777 5.84727C15.7408 5.3103 15.7408 4.4397 16.2777 3.90273L19.0277 1.15273C19.5647 0.615757 20.4353 0.615757 20.9723 1.15273ZM23.1527 1.15273C23.6897 0.615757 24.5603 0.615757 25.0973 1.15273L27.8473 3.90273C28.3842 4.4397 28.3842 5.3103 27.8473 5.84727L25.0973 8.59727C24.5603 9.13424 23.6897 9.13424 23.1527 8.59727C22.6158 8.0603 22.6158 7.1897 23.1527 6.65273L24.9305 4.875L23.1527 3.09727C22.6158 2.5603 22.6158 1.6897 23.1527 1.15273ZM6.25 26.875C6.25 26.1156 6.86561 25.5 7.625 25.5H21.375C22.1344 25.5 22.75 26.1156 22.75 26.875C22.75 27.6344 22.1344 28.25 21.375 28.25H7.625C6.86561 28.25 6.25 27.6344 6.25 26.875Z" fill="rgb(35, 131, 226)"/>
</svg>