<svg width="28" height="28" viewBox="0 0 28 28" fill="none" xmlns="http://www.w3.org/2000/svg">
<path fill-rule="evenodd" clip-rule="evenodd" d="M20.9717 11.9833C20.9717 13.1637 20.7392 14.3325 20.2875 15.423C19.8358 16.5135 19.1737 17.5044 18.339 18.339C17.5044 19.1737 16.5135 19.8358 15.423 20.2875C14.3325 20.7392 13.1637 20.9717 11.9833 20.9717C10.8029 20.9717 9.63413 20.7392 8.54361 20.2875C7.45309 19.8358 6.46222 19.1737 5.62757 18.339C4.79293 17.5044 4.13085 16.5135 3.67914 15.423C3.22743 14.3325 2.99494 13.1637 2.99494 11.9833C2.99494 9.59945 3.94193 7.31322 5.62757 5.62757C7.31322 3.94193 9.59945 2.99494 11.9833 2.99494C14.3672 2.99494 16.6534 3.94193 18.339 5.62757C20.0247 7.31322 20.9717 9.59945 20.9717 11.9833ZM19.3338 21.4511C16.9257 23.3206 13.8956 24.2021 10.8604 23.9162C7.82516 23.6302 5.01302 22.1983 2.99644 19.9118C0.979859 17.6254 -0.0895644 14.6564 0.00588033 11.6093C0.101325 8.56214 1.35446 5.6659 3.51018 3.51018C5.6659 1.35446 8.56214 0.101325 11.6093 0.00588033C14.6564 -0.0895644 17.6254 0.979859 19.9118 2.99644C22.1983 5.01302 23.6302 7.82516 23.9162 10.8604C24.2021 13.8956 23.3206 16.9257 21.4511 19.3338L27.5232 25.4059C27.6704 25.5431 27.7884 25.7085 27.8703 25.8922C27.9522 26.076 27.9962 26.2744 27.9998 26.4755C28.0033 26.6767 27.9663 26.8765 27.891 27.063C27.8156 27.2495 27.7035 27.419 27.5612 27.5612C27.419 27.7035 27.2495 27.8156 27.063 27.891C26.8765 27.9663 26.6767 28.0033 26.4755 27.9998C26.2744 27.9962 26.076 27.9522 25.8922 27.8703C25.7085 27.7884 25.5431 27.6704 25.4059 27.5232L19.3338 21.4511Z" fill="black"/>
</svg>
