<svg width="30" height="32" viewBox="0 0 30 32" fill="none" xmlns="http://www.w3.org/2000/svg">
<path fill-rule="evenodd" clip-rule="evenodd" d="M7.69264 1.35011C8.5571 0.485649 9.72956 0 10.9521 0H25.3903C26.6129 0 27.7853 0.485649 28.6498 1.35011C29.5143 2.21457 29.9999 3.38703 29.9999 4.60956V22.6574C29.9999 23.8799 29.5143 25.0524 28.6498 25.9168C27.7853 26.7813 26.6129 27.2669 25.3903 27.2669H10.9521C9.72956 27.2669 8.5571 26.7813 7.69264 25.9168C6.82818 25.0524 6.34253 23.8799 6.34253 22.6574V4.60956C6.34253 3.38703 6.82818 2.21457 7.69264 1.35011ZM10.9521 2C10.26 2 9.59624 2.27494 9.10685 2.76432C8.61746 3.25371 8.34253 3.91746 8.34253 4.60956V22.6574C8.34253 23.3495 8.61746 24.0132 9.10685 24.5026C9.59624 24.992 10.26 25.2669 10.9521 25.2669H25.3903C26.0824 25.2669 26.7462 24.992 27.2356 24.5026C27.725 24.0132 27.9999 23.3495 27.9999 22.6574V4.60956C27.9999 3.91746 27.725 3.25371 27.2356 2.76432C26.7462 2.27493 26.0824 2 25.3903 2H10.9521Z" fill="rgb(35, 131, 226)"/>
<path fill-rule="evenodd" clip-rule="evenodd" d="M7.93058 5.05229C8.11961 5.57122 7.85218 6.14513 7.33325 6.33416L3.71647 7.65165C3.06633 7.88846 2.53681 8.37379 2.24442 9.0009C1.95204 9.62799 1.92067 10.3455 2.1572 10.9957C2.15719 10.9957 2.15721 10.9958 2.1572 10.9957L8.32951 27.9552C8.3295 27.9551 8.32952 27.9552 8.32951 27.9552C8.44676 28.2772 8.62632 28.5731 8.8579 28.8257C9.08949 29.0784 9.36859 29.283 9.67925 29.4278C9.98992 29.5725 10.3261 29.6547 10.6685 29.6696C11.0069 29.6843 11.3448 29.6329 11.6635 29.5185L21.6991 25.5569C22.2128 25.3541 22.7937 25.6061 22.9965 26.1199C23.1993 26.6336 22.9472 27.2144 22.4335 27.4172L12.3845 31.3841C12.3762 31.3873 12.368 31.3905 12.3596 31.3935C11.7908 31.6008 11.1867 31.694 10.5818 31.6677C9.97691 31.6415 9.38314 31.4963 8.83437 31.2405C8.28561 30.9848 7.7926 30.6234 7.38352 30.1771C6.97443 29.7308 6.65728 29.2082 6.45017 28.6393L0.277787 11.6797C-0.140079 10.5311 -0.0847191 9.26349 0.431766 8.15575C0.948247 7.04802 1.88352 6.19075 3.03193 5.77245C3.03192 5.77245 3.03194 5.77244 3.03193 5.77245L6.64871 4.45496C7.16764 4.26593 7.74155 4.53336 7.93058 5.05229ZM11.7573 10.0238C11.7573 9.47154 12.205 9.02382 12.7573 9.02382H21.7812C22.3334 9.02382 22.7812 9.47154 22.7812 10.0238C22.7812 10.5761 22.3334 11.0238 21.7812 11.0238H12.7573C12.205 11.0238 11.7573 10.5761 11.7573 10.0238ZM11.7573 13.6334C11.7573 13.0811 12.205 12.6334 12.7573 12.6334H23.5859C24.1382 12.6334 24.5859 13.0811 24.5859 13.6334C24.5859 14.1857 24.1382 14.6334 23.5859 14.6334H12.7573C12.205 14.6334 11.7573 14.1857 11.7573 13.6334ZM11.7573 17.2429C11.7573 16.6907 12.205 16.2429 12.7573 16.2429H18.1716C18.7239 16.2429 19.1716 16.6907 19.1716 17.2429C19.1716 17.7952 18.7239 18.2429 18.1716 18.2429H12.7573C12.205 18.2429 11.7573 17.7952 11.7573 17.2429Z" fill="rgb(35, 131, 226)"/>
</svg>
