<svg width="37" height="37" viewBox="0 0 37 37" fill="none" xmlns="http://www.w3.org/2000/svg">
<path fill-rule="evenodd" clip-rule="evenodd" d="M0.625 18.5C0.625 8.62766 8.62766 0.625 18.5 0.625C28.3723 0.625 36.375 8.62766 36.375 18.5C36.375 28.3723 28.3723 36.375 18.5 36.375C8.62766 36.375 0.625 28.3723 0.625 18.5ZM18.5 3.875C10.4226 3.875 3.875 10.4226 3.875 18.5C3.875 26.5774 10.4226 33.125 18.5 33.125C26.5774 33.125 33.125 26.5774 33.125 18.5C33.125 10.4226 26.5774 3.875 18.5 3.875Z" fill="rgb(35, 131, 226)"/>
<path fill-rule="evenodd" clip-rule="evenodd" d="M14.4783 9.60333C15.5449 8.53672 16.9916 7.9375 18.5 7.9375C20.0084 7.9375 21.4551 8.53672 22.5217 9.60333C23.5883 10.6699 24.1875 12.1166 24.1875 13.625C24.1875 15.1334 23.5883 16.5801 22.5217 17.6467C21.4551 18.7133 20.0084 19.3125 18.5 19.3125C16.9916 19.3125 15.5449 18.7133 14.4783 17.6467C13.4117 16.5801 12.8125 15.1334 12.8125 13.625C12.8125 12.1166 13.4117 10.6699 14.4783 9.60333ZM18.5 11.1875C17.8535 11.1875 17.2335 11.4443 16.7764 11.9014C16.3193 12.3585 16.0625 12.9785 16.0625 13.625C16.0625 14.2715 16.3193 14.8915 16.7764 15.3486C17.2335 15.8057 17.8535 16.0625 18.5 16.0625C19.1465 16.0625 19.7665 15.8057 20.2236 15.3486C20.6807 14.8915 20.9375 14.2715 20.9375 13.625C20.9375 12.9785 20.6807 12.3585 20.2236 11.9014C19.7665 11.4443 19.1465 11.1875 18.5 11.1875Z" fill="rgb(35, 131, 226)"/>
<path fill-rule="evenodd" clip-rule="evenodd" d="M15.25 24.1875C11.8071 24.1875 8.98786 26.8661 8.76435 30.2518C8.70524 31.1473 7.93136 31.8253 7.03584 31.7662C6.14033 31.7071 5.4623 30.9332 5.52141 30.0377C5.85691 24.9555 10.0837 20.9375 15.25 20.9375H21.75C26.9094 20.9375 31.1323 24.9447 31.4776 30.0173C31.5385 30.9127 30.8621 31.688 29.9667 31.7489C29.0713 31.8099 28.296 31.1334 28.2351 30.238C28.0051 26.8591 25.1885 24.1875 21.75 24.1875H15.25Z" fill="rgb(35, 131, 226)"/>
</svg>