<svg width="225" height="158" viewBox="0 0 225 158" fill="none" xmlns="http://www.w3.org/2000/svg">
<path d="M23.4854 1.09531L207.858 1.4171C210.07 1.42096 212.259 1.86037 214.301 2.71024C216.342 3.56012 218.197 4.80381 219.758 6.37031C221.319 7.93681 222.556 9.79544 223.399 11.8401C224.242 13.8847 224.673 16.0753 224.669 18.2868L224.465 135.299C224.457 139.765 222.676 144.045 219.512 147.198C216.348 150.351 212.062 152.117 207.595 152.109L9.15244 151.763C8.41768 151.762 7.71355 151.469 7.1949 150.948C6.67625 150.428 6.38556 149.723 6.38685 148.988L6.61563 17.9063C6.62342 13.4399 8.40515 9.15962 11.5688 6.00695C14.7325 2.85428 19.019 1.08751 23.4854 1.09531Z" fill="#637582"/>
<path d="M222.388 21.1541L222.19 139.888C222.188 141.986 221.771 144.064 220.965 146.002C220.159 147.94 218.979 149.7 217.492 151.181C216.005 152.662 214.241 153.836 212.3 154.635C210.359 155.434 208.28 155.843 206.181 155.837L99.5979 155.659C134.545 114.657 151.049 41.0024 157.263 5.0459H206.438C208.545 5.04843 210.631 5.46797 212.576 6.28034C214.52 7.0927 216.284 8.28183 217.767 9.77919C219.25 11.2766 220.421 13.0525 221.214 15.0048C222.007 16.957 222.406 19.047 222.388 21.1541Z" fill="#455760"/>
<path d="M12.6985 24.8826L5.83179 24.8706L5.61161 151.025L12.4784 151.037L12.6985 24.8826Z" fill="#94A5AF"/>
<path d="M220.805 12.8431V25.884L2.7312 25.508V12.4869C2.82868 10.5778 3.67494 8.7841 5.08639 7.4949C6.49784 6.2057 8.36066 5.52498 10.2708 5.60039L213.325 5.95659C214.268 5.91679 215.211 6.06343 216.097 6.38811C216.984 6.7128 217.798 7.20916 218.493 7.84878C219.188 8.48841 219.75 9.25876 220.146 10.1157C220.543 10.9727 220.767 11.8995 220.805 12.8431Z" fill="#ECEBEB"/>
<path d="M20.2244 17.2757C21.4376 17.2757 22.421 16.2923 22.421 15.0791C22.421 13.866 21.4376 12.8826 20.2244 12.8826C19.0113 12.8826 18.0278 13.866 18.0278 15.0791C18.0278 16.2923 19.0113 17.2757 20.2244 17.2757Z" fill="#3E3127"/>
<path d="M29.2087 17.2957C30.4219 17.2957 31.4054 16.3123 31.4054 15.0992C31.4054 13.886 30.4219 12.9026 29.2087 12.9026C27.9956 12.9026 27.0122 13.886 27.0122 15.0992C27.0122 16.3123 27.9956 17.2957 29.2087 17.2957Z" fill="#3E3127"/>
<path d="M38.1925 17.3155C39.4056 17.3155 40.389 16.3321 40.389 15.1189C40.389 13.9058 39.4056 12.9224 38.1925 12.9224C36.9793 12.9224 35.9958 13.9058 35.9958 15.1189C35.9958 16.3321 36.9793 17.3155 38.1925 17.3155Z" fill="#3E3127"/>
<path d="M134.664 6.09475L122.949 26.0024L109.532 25.9826L121.267 6.05518L134.664 6.09475Z" fill="white"/>
<path d="M166.029 6.13429L154.314 26.0617L140.877 26.0222L152.612 6.1145L166.029 6.13429Z" fill="white"/>
<path d="M213.344 157.738L11.3984 157.401C8.37331 157.385 5.47722 156.174 3.34186 154.031C1.20649 151.889 0.00518413 148.988 0 145.963L0.237457 11.3985C0.234841 9.89922 0.528516 8.41423 1.10165 7.02883C1.67479 5.64344 2.51608 4.38497 3.57714 3.32575C4.6382 2.26653 5.8981 1.42744 7.28448 0.856708C8.67087 0.285976 10.1564 -0.00514822 11.6556 6.88975e-05L213.602 0.336481C216.627 0.35215 219.523 1.56351 221.658 3.70629C223.794 5.84907 224.995 8.74937 225 11.7745L224.763 146.339C224.757 149.364 223.552 152.263 221.411 154.4C219.27 156.537 216.369 157.738 213.344 157.738ZM11.6358 6.76788C11.0187 6.76243 10.4066 6.88041 9.8357 7.1149C9.26478 7.34939 8.74649 7.69565 8.31131 8.13332C7.87274 8.56885 7.52456 9.08677 7.28684 9.65732C7.04911 10.2279 6.92656 10.8398 6.92612 11.4579L6.6886 146.023C6.69381 147.27 7.19173 148.465 8.07385 149.347C8.95598 150.229 10.1509 150.727 11.3984 150.732L213.344 151.088C214.592 151.083 215.787 150.585 216.669 149.703C217.551 148.821 218.049 147.626 218.054 146.379L218.272 11.8141C218.274 11.1965 218.155 10.5845 217.92 10.0132C217.686 9.4419 217.341 8.92255 216.905 8.48494C216.469 8.04734 215.951 7.70011 215.381 7.46318C214.811 7.22625 214.199 7.10429 213.582 7.10429L11.6358 6.76788Z" fill="#3E3127"/>
<path d="M3.5715 22.9884L3.56445 27.0254L222.766 27.408L222.773 23.371L3.5715 22.9884Z" fill="#3E3127"/>
<path d="M124.295 45.4352L27.5267 45.2769C27.0019 45.2769 26.4986 45.0684 26.1275 44.6973C25.7564 44.3262 25.5479 43.8228 25.5479 43.298C25.5479 42.7731 25.7564 42.2698 26.1275 41.8987C26.4986 41.5276 27.0019 41.3191 27.5267 41.3191L124.314 41.4774C124.839 41.4774 125.343 41.6859 125.714 42.057C126.085 42.4281 126.293 42.9315 126.293 43.4563C126.293 43.9811 126.085 44.4845 125.714 44.8556C125.343 45.2267 124.839 45.4352 124.314 45.4352H124.295Z" fill="#FFC754"/>
<path d="M81.6297 61.8999H27.4872C26.9624 61.8999 26.459 61.6914 26.0879 61.3203C25.7168 60.9492 25.5083 60.4459 25.5083 59.921C25.5083 59.3962 25.7168 58.8929 26.0879 58.5217C26.459 58.1506 26.9624 57.9421 27.4872 57.9421H81.6495C82.1743 57.9421 82.6777 58.1506 83.0488 58.5217C83.4199 58.8929 83.6284 59.3962 83.6284 59.921C83.6284 60.4459 83.4199 60.9492 83.0488 61.3203C82.6777 61.6914 82.1743 61.8999 81.6495 61.8999H81.6297Z" fill="#A2FCE2"/>
<path d="M91.5635 78.4431H27.4672C26.9423 78.4431 26.439 78.2346 26.0679 77.8635C25.6968 77.4924 25.4883 76.9891 25.4883 76.4642C25.4883 75.9394 25.6968 75.4361 26.0679 75.065C26.439 74.6938 26.9423 74.4854 27.4672 74.4854L91.5635 74.6041C92.0884 74.6041 92.5917 74.8126 92.9628 75.1837C93.3339 75.5548 93.5424 76.0581 93.5424 76.583C93.5424 77.1078 93.3339 77.6111 92.9628 77.9823C92.5917 78.3534 92.0884 78.5619 91.5635 78.5619V78.4431Z" fill="white"/>
<path d="M105.238 61.939H97.975C97.4502 61.939 96.9468 61.7305 96.5757 61.3594C96.2046 60.9883 95.9961 60.4849 95.9961 59.9601C95.9961 59.4353 96.2046 58.9319 96.5757 58.5608C96.9468 58.1897 97.4502 57.9812 97.975 57.9812H105.257C105.782 57.9812 106.286 58.1897 106.657 58.5608C107.028 58.9319 107.236 59.4353 107.236 59.9601C107.236 60.4849 107.028 60.9883 106.657 61.3594C106.286 61.7305 105.782 61.939 105.257 61.939H105.238Z" fill="white"/>
<path d="M120.851 78.5025H106.464C105.94 78.5025 105.436 78.294 105.065 77.9229C104.694 77.5517 104.486 77.0484 104.486 76.5236C104.486 75.9987 104.694 75.4954 105.065 75.1243C105.436 74.7532 105.94 74.5447 106.464 74.5447H120.851C121.376 74.5447 121.879 74.7532 122.25 75.1243C122.621 75.4954 122.83 75.9987 122.83 76.5236C122.83 77.0484 122.621 77.5517 122.25 77.9229C121.879 78.294 121.376 78.5025 120.851 78.5025Z" fill="#FFC754"/>
</svg>
