<svg width="93" height="93" viewBox="0 0 93 93" fill="none" xmlns="http://www.w3.org/2000/svg">
<!-- <path d="M93 46.5C93 72.1812 72.1812 93 46.5 93C20.8188 93 0 72.1812 0 46.5C0 20.8188 20.8188 0 46.5 0C72.1812 0 93 20.8188 93 46.5Z" fill="#F0DB4F"/> -->
<path d="M40.0862 28.3274H31.5345C31.5345 28.3274 31.4276 51.0429 31.3207 51.5774C31.3207 51.8446 31.0141 54.517 29.7707 55.9067C28.8621 56.9222 27.8432 57.1895 25.1207 57.1895C22.9828 57.1895 20.3104 56.3877 19.3483 55.9602C19.2414 56.3877 17.6379 63.0688 17.6379 63.0688C17.6379 63.0688 20.0431 64.6722 23.7845 65.2067C27.5259 65.7412 31.8017 64.6722 31.8017 64.6722C31.8017 64.6722 34.7414 63.6033 36.6121 61.4653C38.4828 59.3274 40.0862 55.0515 40.0862 51.5774V28.3274Z" fill="black"/>
<path d="M72.369 31.9619L68.1466 38.7499C68.1466 38.7499 63.069 35.1688 59.1764 35.1688C56.9225 35.1688 54.1845 36.3447 54.1845 37.7964C54.1845 44.6291 73.3311 40.086 73.3311 54.1338C73.3311 63.8706 63.3363 65.2067 59.1764 65.2067C50.7759 65.2067 43.8276 60.6637 43.8276 60.6637L47.569 52.9137C47.569 52.9137 52.1121 57.0382 59.1764 57.0382C62.8018 57.0382 63.8707 56.6522 63.8707 54.1334C63.8707 49.7068 45.4311 51.043 45.4311 40.0861C45.4311 34.474 48.5119 27.793 59.1764 27.793C67.3449 27.793 72.369 31.9619 72.369 31.9619Z" fill="black"/>
</svg>
