<svg width="93" height="93" viewBox="0 0 93 93" fill="none" xmlns="http://www.w3.org/2000/svg">
<!-- <path d="M46.5 93C72.1812 93 93 72.1812 93 46.5C93 20.8188 72.1812 0 46.5 0C20.8188 0 0 20.8188 0 46.5C0 72.1812 20.8188 93 46.5 93Z" fill="#777BB4"/> -->
<path d="M28.9931 57.9262C27.734 57.9262 26.6428 57.6639 25.7195 57.1393C24.7961 56.6147 24.0827 55.8802 23.579 54.9359V64.316H18.5427V41.0861H22.918V43.7616C23.5266 42.8173 24.2873 42.0828 25.2001 41.5582C26.1129 41.0336 27.1989 40.7713 28.458 40.7713C29.5701 40.7713 30.5931 40.9916 31.527 41.4323C32.4608 41.873 33.2687 42.4763 33.9507 43.2422C34.6327 44.0082 35.1678 44.9105 35.556 45.9493C35.9442 46.988 36.1383 48.1054 36.1383 49.3015C36.1383 50.5396 35.96 51.6833 35.6032 52.7325C35.2465 53.7818 34.7533 54.6893 34.1238 55.4553C33.4943 56.2212 32.7388 56.8245 31.8575 57.2652C30.9761 57.7059 30.0213 57.9262 28.9931 57.9262ZM27.2933 53.6768C27.8389 53.6768 28.3373 53.5562 28.7885 53.3149C29.2396 53.0735 29.6331 52.7535 29.9688 52.3548C30.3046 51.9561 30.5617 51.4892 30.74 50.9541C30.9184 50.419 31.0076 49.8576 31.0076 49.2701C31.0076 48.6615 30.9079 48.1002 30.7086 47.5861C30.5092 47.0719 30.2364 46.626 29.8902 46.2483C29.5439 45.8706 29.1242 45.5768 28.6311 45.3669C28.1379 45.1571 27.6081 45.0522 27.0415 45.0522C26.349 45.0522 25.6827 45.2568 25.0427 45.666C24.4027 46.0752 23.9148 46.626 23.579 47.3185V50.718C23.9148 51.5574 24.4237 52.2604 25.1057 52.827C25.7877 53.3935 26.5169 53.6768 27.2933 53.6768ZM54.6153 47.0352V57.6115H49.579V48.3258C49.579 47.2555 49.3691 46.4686 48.9494 45.965C48.5297 45.4614 47.9527 45.2095 47.2182 45.2095C46.9244 45.2095 46.6044 45.2777 46.2582 45.4141C45.9119 45.5505 45.5762 45.7499 45.2509 46.0122C44.9256 46.2745 44.6266 46.584 44.3538 46.9408C44.081 47.2975 43.8712 47.6962 43.7243 48.1369V57.6115H38.688V34.6333H43.7243V43.856C44.3328 42.8698 45.1355 42.1091 46.1323 41.574C47.129 41.0389 48.2255 40.7713 49.4216 40.7713C50.5338 40.7713 51.4309 40.9654 52.1129 41.3536C52.7949 41.7418 53.3195 42.235 53.6867 42.833C54.0539 43.4311 54.3005 44.1026 54.4264 44.8476C54.5523 45.5925 54.6153 46.3217 54.6153 47.0352ZM68.4022 57.9262C67.1431 57.9262 66.0519 57.6639 65.1286 57.1393C64.2053 56.6147 63.4918 55.8802 62.9881 54.9359V64.316H57.9518V41.0861H62.3271V43.7616C62.9357 42.8173 63.6964 42.0828 64.6092 41.5582C65.522 41.0336 66.608 40.7713 67.8671 40.7713C68.9793 40.7713 70.0023 40.9916 70.9361 41.4323C71.8699 41.873 72.6778 42.4763 73.3598 43.2422C74.0418 44.0082 74.5769 44.9105 74.9651 45.9493C75.3533 46.988 75.5474 48.1054 75.5474 49.3015C75.5474 50.5396 75.3691 51.6833 75.0123 52.7325C74.6556 53.7818 74.1625 54.6893 73.5329 55.4553C72.9034 56.2212 72.1479 56.8245 71.2666 57.2652C70.3852 57.7059 69.4304 57.9262 68.4022 57.9262ZM66.7024 53.6768C67.248 53.6768 67.7464 53.5562 68.1976 53.3149C68.6487 53.0735 69.0422 52.7535 69.378 52.3548C69.7137 51.9561 69.9708 51.4892 70.1491 50.9541C70.3275 50.419 70.4167 49.8576 70.4167 49.2701C70.4167 48.6615 70.317 48.1002 70.1177 47.5861C69.9183 47.0719 69.6455 46.626 69.2993 46.2483C68.953 45.8706 68.5333 45.5768 68.0402 45.3669C67.5471 45.1571 67.0172 45.0522 66.4506 45.0522C65.7581 45.0522 65.0919 45.2568 64.4518 45.666C63.8118 46.0752 63.3239 46.626 62.9881 47.3185V50.718C63.3239 51.5574 63.8328 52.2604 64.5148 52.827C65.1968 53.3935 65.926 53.6768 66.7024 53.6768Z" fill="white"/>
</svg>
