<svg width="93" height="93" viewBox="0 0 93 93" fill="none" xmlns="http://www.w3.org/2000/svg">
<!-- <path d="M93 46.5C93 72.1812 72.1812 93 46.5 93C20.8188 93 0 72.1812 0 46.5C0 20.8188 20.8188 0 46.5 0C72.1812 0 93 20.8188 93 46.5Z" fill="#23282D"/> -->
<path d="M63.6026 38.6437C63.0253 38.4456 62.4431 38.2621 61.8565 38.0934C61.955 37.6908 62.0457 37.293 62.1262 36.9023C63.4481 30.4855 62.584 25.3161 59.6323 23.6141C56.8023 21.9824 52.1741 23.6838 47.4999 27.7517C47.0392 28.1534 46.5888 28.5666 46.149 28.991C45.8545 28.7088 45.5549 28.432 45.2503 28.1609C40.3514 23.8114 35.4411 21.9782 32.4927 23.6851C29.6652 25.3218 28.828 30.1815 30.018 36.2627C30.1364 36.865 30.2701 37.4642 30.419 38.0597C29.7239 38.2572 29.0532 38.4674 28.4114 38.6912C22.6679 40.6937 19 43.8318 19 47.0869C19 50.4488 22.9376 53.8208 28.9197 55.8655C29.4047 56.0306 29.8937 56.1836 30.3863 56.3243C30.2264 56.9657 30.0843 57.6114 29.9604 58.2607C28.8259 64.2364 29.7118 68.9812 32.5317 70.6076C35.4441 72.2872 40.3324 70.561 45.092 66.4002C45.4779 66.0619 45.8554 65.7141 46.224 65.357C46.7002 65.8165 47.1892 66.2627 47.6904 66.695C52.301 70.6623 56.8544 72.2643 59.6715 70.6334C62.5812 68.949 63.5269 63.8518 62.2992 57.6504C62.2024 57.1646 62.094 56.6811 61.9739 56.2005C62.3172 56.0988 62.6541 55.9941 62.9826 55.8852C69.2016 53.8249 73.2479 50.4937 73.2479 47.0869C73.2479 43.8199 69.4616 40.6606 63.6026 38.6437ZM62.2538 53.6856C61.9571 53.7837 61.6528 53.8785 61.3426 53.9706C60.656 51.7971 59.7296 49.4861 58.5957 47.0981C59.6777 44.7672 60.5685 42.4856 61.2358 40.3262C61.7908 40.4869 62.3292 40.6562 62.8484 40.8348C67.8685 42.5631 70.9305 45.1181 70.9305 47.0869C70.9305 49.1839 67.6235 51.9063 62.2538 53.6856ZM60.0258 58.1005C60.5687 60.8425 60.6461 63.3218 60.2865 65.2601C59.9635 67.0018 59.3138 68.1628 58.5103 68.628C56.8008 69.6176 53.1448 68.3313 49.2019 64.9383C48.7358 64.5364 48.2809 64.1216 47.8379 63.6944C49.3665 62.0226 50.8942 60.0793 52.3851 57.9208C55.0077 57.6881 57.4853 57.3075 59.7321 56.7882C59.8404 57.2232 59.9383 57.6608 60.0258 58.1005ZM37.4943 68.457C35.8241 69.0467 34.4937 69.0636 33.6895 68.6C31.9784 67.6132 31.267 63.8033 32.2373 58.693C32.3527 58.0891 32.4847 57.4885 32.6334 56.892C34.8554 57.3836 37.315 57.7371 39.9437 57.9502C41.4449 60.0623 43.0166 62.0036 44.6006 63.7035C44.2639 64.0292 43.9193 64.3466 43.5671 64.6554C41.4622 66.4951 39.3531 67.8005 37.4943 68.457ZM29.6695 53.6727C27.0242 52.7685 24.8397 51.5935 23.3424 50.3112C21.9968 49.1591 21.3176 48.015 21.3176 47.0869C21.3176 45.1115 24.2625 42.5919 29.1742 40.8795C29.7703 40.6719 30.3942 40.4758 31.0416 40.2919C31.7205 42.5 32.6109 44.8087 33.6855 47.1433C32.5969 49.5124 31.6938 51.8579 31.0083 54.0921C30.5586 53.9633 30.1122 53.8234 29.6695 53.6727ZM32.2924 35.8175C31.273 30.6074 31.95 26.6772 33.6539 25.6907C35.4687 24.6401 39.4818 26.1381 43.7116 29.8939C43.9874 30.1394 44.2588 30.3898 44.5256 30.6451C42.9494 32.3376 41.3921 34.2645 39.9043 36.364C37.353 36.6005 34.9107 36.9802 32.6654 37.489C32.527 36.9352 32.4027 36.3777 32.2924 35.8175ZM55.6926 41.5958C55.1622 40.6797 54.6122 39.7751 54.0429 38.8827C55.7737 39.1016 57.4321 39.3922 58.9894 39.7473C58.5219 41.2459 57.9392 42.8125 57.2533 44.4188C56.7519 43.4675 56.2315 42.5263 55.6926 41.5958ZM46.15 32.3014C47.2189 33.4594 48.2894 34.7523 49.3424 36.1551C47.2064 36.0542 45.0668 36.0538 42.9307 36.1538C43.9848 34.7639 45.0644 33.4728 46.15 32.3014ZM36.5462 41.6117C36.014 42.5347 35.5034 43.47 35.0148 44.4169C34.3401 42.8163 33.7626 41.2425 33.2911 39.7227C34.8389 39.3765 36.4894 39.0934 38.2093 38.8785C37.6336 39.7763 37.0791 40.6878 36.5462 41.6117ZM38.2586 55.4601C36.4818 55.2618 34.8065 54.9933 33.2591 54.6564C33.7381 53.1095 34.3282 51.5022 35.0175 49.8673C35.5081 50.8149 36.0208 51.7508 36.5553 52.6742C37.105 53.6235 37.6742 54.5534 38.2586 55.4601ZM46.214 62.0356C45.1155 60.8506 44.0199 59.5395 42.95 58.1295C43.9888 58.1702 45.0477 58.191 46.124 58.191C47.2297 58.191 48.3227 58.1662 49.3985 58.1183C48.3422 59.5537 47.2757 60.8667 46.214 62.0356ZM57.2751 49.7838C58.0002 51.4367 58.6114 53.0355 59.0966 54.5559C57.5239 54.9149 55.8256 55.2039 54.0363 55.4186C54.6097 54.5096 55.1649 53.5894 55.7017 52.6583C56.2474 51.7119 56.772 50.7535 57.2751 49.7838ZM53.6943 51.5005C52.8726 52.9279 52.0046 54.3283 51.0919 55.6994C49.4385 55.8165 47.7815 55.8746 46.124 55.8738C44.4357 55.8738 42.7936 55.8212 41.2124 55.7187C40.2758 54.3508 39.3913 52.9479 38.5608 51.5132C37.7342 50.086 36.9623 48.628 36.2464 47.1422C36.9605 45.6561 37.7303 44.1973 38.554 42.7691L38.5538 42.7693C39.3773 41.3407 40.2547 39.9438 41.1842 38.5818C42.7975 38.4598 44.4518 38.3962 46.1237 38.3962C47.8033 38.3962 49.46 38.4604 51.0728 38.5833C51.9929 39.9433 52.8647 41.3353 53.6867 42.7568C54.5132 44.1819 55.2931 45.6335 56.0253 47.1093C55.3006 48.6003 54.5232 50.0649 53.6943 51.5005ZM58.4749 25.6217C60.2914 26.6693 60.9978 30.8941 59.8565 36.4344C59.7836 36.7878 59.7018 37.1479 59.6128 37.513C57.362 36.9934 54.9181 36.6071 52.3593 36.367C50.8687 34.2443 49.3242 32.3145 47.7736 30.6438C48.18 30.2521 48.596 29.8706 49.0213 29.4995C53.0264 26.0143 56.7695 24.6382 58.4749 25.6217ZM46.124 42.2427C48.7993 42.2427 50.9681 44.4116 50.9681 47.0869C50.9681 49.7622 48.7993 51.9311 46.124 51.9311C43.4486 51.9311 41.2798 49.7622 41.2798 47.0869C41.2798 44.4116 43.4486 42.2427 46.124 42.2427Z" fill="#00D8FF"/>
</svg>
